<?xml version="1.0" standalone="no"?>
<!DOCTYPE svg PUBLIC "-//W3C//DTD SVG 1.1//EN" "http://www.w3.org/Graphics/SVG/1.1/DTD/svg11.dtd" >
<svg xmlns="http://www.w3.org/2000/svg" xmlns:xlink="http://www.w3.org/1999/xlink" version="1.1">
<metadata>
Created by FontForge 20170731 at Sun Oct 29 15:11:12 2023
 By Aleksey,,,
Copyright (c) 2014 by (c) 2009 Designed by Svetoslav Simov (c) Fontfabric, Inc. All rights reserved.
</metadata>
<defs>
<font id="UniSansHeavyCAPS" horiz-adv-x="1204" >
  <font-face 
    font-family="Uni Sans Heavy CAPS"
    font-weight="900"
    font-variant="small-caps"
    font-stretch="normal"
    units-per-em="2048"
    panose-1="0 0 5 0 0 0 0 0 0 0"
    ascent="1548"
    descent="-500"
    x-height="1450"
    cap-height="1450"
    bbox="-117 -520 2222 2042"
    underline-thickness="102"
    underline-position="-307"
    unicode-range="U+0020-FB02"
  />
<missing-glyph horiz-adv-x="1230" 
d="M1106 1434v-1434h-1083v1434h1083zM422 1151l143 -213q23 33 65 98q46 71 77 115h-285zM469 715l-16 28l-164 248v-536zM686 743l-16 -28l180 -260v536zM420 285h285q-19 27 -142 209z" />
    <glyph glyph-name="fi" unicode="fi" horiz-adv-x="1705" 
d="M485 1102v-260h559v-342h-559v-500h-370v1450h1009v-348h-639zM1591 1450v-1450h-366v1450h366z" />
    <glyph glyph-name="fl" unicode="fl" horiz-adv-x="2252" 
d="M485 1102v-260h559v-342h-559v-500h-370v1450h1009v-348h-639zM1264 0v1450h368v-1088h590v-362h-958z" />
    <glyph glyph-name=".notdef" horiz-adv-x="1230" 
d="M1106 1434v-1434h-1083v1434h1083zM422 1151l143 -213q23 33 65 98q46 71 77 115h-285zM469 715l-16 28l-164 248v-536zM686 743l-16 -28l180 -260v536zM420 285h285q-19 27 -142 209z" />
    <glyph glyph-name=".null" horiz-adv-x="0" 
 />
    <glyph glyph-name="nonmarkingreturn" horiz-adv-x="681" 
 />
    <glyph glyph-name="space" unicode=" " horiz-adv-x="372" 
 />
    <glyph glyph-name="exclam" unicode="!" horiz-adv-x="595" 
d="M109 451l-21 1007h418l-21 -1007h-376zM96 182q0 87 60 147t143 60q86 0 146 -60q61 -61 61 -147q0 -82 -61 -143q-59 -59 -146 -59q-84 0 -143 59q-60 60 -60 143z" />
    <glyph glyph-name="quotedbl" unicode="&#x22;" horiz-adv-x="946" 
d="M451 1452l-43 -594h-312v594h355zM870 1452l-41 -594h-313v594h354z" />
    <glyph glyph-name="numbersign" unicode="#" horiz-adv-x="1325" 
d="M1030 645h135l-88 -299h-137l-102 -348h-324l100 348h-86l-100 -348h-334l103 348h-152l88 299h152l18 68h-151l92 311h151l97 330h323l-96 -330h86l96 330h338l-98 -330h135l-90 -311h-137zM631 739l-35 -121h121l33 121h-119z" />
    <glyph glyph-name="dollar" unicode="$" horiz-adv-x="1167" 
d="M461 -133v131q-253 11 -412 285l262 180q63 -89 150 -101v199q-392 92 -387 453q7 162 116 271q107 107 271 142v121h264v-118q111 -15 193 -70q81 -54 161 -174l-245 -156q-34 59 -109 74v-230q90 -22 157 -53q67 -30 124 -83q58 -53 86 -136t22 -196
q-12 -157 -121 -263q-106 -103 -268 -143v-133h-264zM397 1012v-2q-5 -92 78 -121v233q-78 -44 -78 -110zM791 444v2q5 92 -78 121v-233q78 44 78 110z" />
    <glyph glyph-name="percent" unicode="%" horiz-adv-x="1515" 
d="M113 14l1007 1557l264 -176l-1007 -1551zM666 1108q0 -165 -87 -264t-223 -99q-144 0 -224 95q-79 94 -79 272q0 162 85 260t218 98q151 0 230 -94q80 -95 80 -268zM422 1108q0 123 -68 123q-71 0 -71 -121t71 -121q68 0 68 119zM1464 350q0 -165 -87 -264
q-86 -98 -222 -98q-145 0 -224 94t-79 272q0 162 85 260q85 99 218 99q149 0 229 -95t80 -268zM1221 350q0 123 -68 123q-72 0 -72 -121t72 -121q68 0 68 119z" />
    <glyph glyph-name="ampersand" unicode="&#x26;" horiz-adv-x="1396" 
d="M1069 715l205 -262l-135 -111l272 -340h-430l-98 117q-108 -96 -253 -119q-143 -22 -271 22q-127 44 -213 160q-87 117 -87 279q0 235 217 364q-89 94 -103 211q-13 115 37 211q48 92 156 157q104 63 234 58q164 -5 278 -108q115 -105 115 -269q0 -210 -176 -333
l121 -150zM594 1174q-38 0 -68 -28q-28 -27 -28 -67q0 -37 75 -127q101 68 101 133q0 35 -24 62t-56 27zM670 365l-178 208q-63 -33 -78 -98q-15 -66 22 -110q39 -56 112 -56q72 0 122 56z" />
    <glyph glyph-name="quotesingle" unicode="'" horiz-adv-x="526" 
d="M446 1450l-30 -594h-318v594h348z" />
    <glyph glyph-name="parenleft" unicode="(" horiz-adv-x="659" 
d="M389 1628l242 -158q-250 -379 -247 -770t253 -776l-260 -174q-156 219 -237 470t-81 491q0 249 85 491t245 426z" />
    <glyph glyph-name="parenright" unicode=")" horiz-adv-x="647" 
d="M25 1448l233 156q162 -184 246 -417t84 -476q0 -242 -81 -491q-81 -248 -237 -466l-245 166q240 385 245 777t-245 751z" />
    <glyph glyph-name="asterisk" unicode="*" horiz-adv-x="976" 
d="M831 1329l97 -325l-230 -29l166 -160l-264 -203l-111 207l-106 -207l-274 199l165 172l-225 27l94 323l209 -98l-30 219h335l-39 -217z" />
    <glyph glyph-name="plus" unicode="+" horiz-adv-x="1159" 
d="M414 831v349h346v-349h344v-348h-344v-350h-346v350h-359v348h359z" />
    <glyph glyph-name="comma" unicode="," horiz-adv-x="587" 
d="M514 217l-205 -522h-354l174 522h385z" />
    <glyph glyph-name="hyphen" unicode="-" horiz-adv-x="827" 
d="M733 768v-348h-639v348h639z" />
    <glyph glyph-name="period" unicode="." horiz-adv-x="526" 
d="M59 195q0 83 60 143q59 59 143 59q86 0 145 -59q60 -60 60 -143q0 -87 -60 -147t-145 -60q-83 0 -143 60t-60 147z" />
    <glyph glyph-name="slash" unicode="/" horiz-adv-x="1003" 
d="M965 1452l-603 -1595l-323 116l604 1592z" />
    <glyph glyph-name="zero" unicode="0" horiz-adv-x="1220" 
d="M610 -20q-131 0 -245 45q-116 46 -197 149q-82 104 -82 250v600q0 216 159 331q158 115 365 115q210 0 367 -115q158 -116 158 -331v-600q0 -145 -81 -250q-80 -103 -197 -149q-115 -45 -247 -45zM610 1149q-71 0 -123 -37q-53 -38 -53 -98v-594q0 -60 52 -94
q53 -35 124 -35q70 0 123 35t53 94v594q0 60 -54 98q-53 37 -122 37z" />
    <glyph glyph-name="one" unicode="1" horiz-adv-x="765" 
d="M662 0h-330v973l-139 -96l-193 167l385 406h277v-1450z" />
    <glyph glyph-name="two" unicode="2" horiz-adv-x="1142" 
d="M338 991l-275 150q86 164 223 247q136 82 292 82q227 0 356 -132t129 -314q0 -238 -180 -406l-320 -303l170 35h328v-348h-934l-92 191l590 663q96 108 43 205q-40 76 -131 74q-121 0 -199 -144z" />
    <glyph glyph-name="three" unicode="3" horiz-adv-x="1105" 
d="M33 242l237 219q76 -123 234 -123q77 0 129 34q53 35 53 91q0 58 -41 99q-40 40 -117 40h-225v293h217q67 0 94 67q27 66 -8 111q-52 74 -157 64q-108 -11 -177 -90l-213 188q87 110 211 173q121 62 246 62q334 0 436 -253q50 -103 26 -240q-24 -138 -128 -203
q101 -51 148 -146q46 -93 46 -194q0 -203 -157 -329q-156 -125 -369 -125q-148 0 -277 65t-208 197z" />
    <glyph glyph-name="four" unicode="4" horiz-adv-x="1175" 
d="M1112 612v-297h-135v-315h-350v315h-510l-117 215l676 920h301v-838h135zM397 608h256l4 371z" />
    <glyph glyph-name="five" unicode="5" horiz-adv-x="1107" 
d="M57 248l260 205q66 -80 156 -98t157 28q66 45 70 127q6 105 -48 160t-142 55q-146 0 -236 -121h-168v846h861v-322h-568v-163q179 57 327 19q146 -37 240 -166q93 -128 93 -300q0 -222 -140 -380t-407 -158q-131 0 -251 66q-119 65 -204 202z" />
    <glyph glyph-name="six" unicode="6" horiz-adv-x="1196" 
d="M1081 1202l-256 -147q-63 102 -200 102q-79 0 -135 -40t-56 -105v-150q103 73 230 80t233 -39q108 -47 179 -148q73 -103 73 -233v-86q0 -214 -156 -335q-155 -121 -372 -121q-220 0 -378 121q-159 121 -159 335v578q0 208 163 332t378 124q150 0 271 -67
q122 -68 185 -201zM799 424v108q0 72 -91 102q-92 30 -183 0t-91 -102v-108q0 -79 91 -110q91 -32 183 0q91 31 91 110z" />
    <glyph glyph-name="seven" unicode="7" horiz-adv-x="1083" 
d="M45 1450h936l98 -197l-559 -1253h-393l471 1102h-553v348z" />
    <glyph glyph-name="eight" unicode="8" horiz-adv-x="1228" 
d="M631 -20h-29q-253 0 -396 119q-145 121 -145 337q0 192 195 338q-127 84 -127 260q0 118 47 209q47 90 122 137q79 49 152 69q76 21 152 21h29q199 0 336 -111t137 -339q0 -56 -34 -130q-35 -75 -91 -114q91 -46 141 -140q49 -91 47 -179q-5 -229 -138 -353t-398 -124z
M633 1171h-31q-91 -2 -125 -73q-35 -73 4 -143t133 -70q64 0 107 28t52 70q9 41 0 82q-9 42 -47 72q-37 29 -93 34zM600 322h35q116 0 157 81q42 82 -5 160q-46 77 -146 70h-47q-96 2 -142 -74q-46 -77 -6 -156t154 -81z" />
    <glyph glyph-name="nine" unicode="9" 
d="M90 256l260 172q73 -121 230 -121q78 0 134 40t56 99v150q-104 -75 -229 -82q-128 -8 -234 40q-108 49 -179 149q-73 103 -73 233v86q0 212 155 331q153 117 374 117t377 -117q158 -119 159 -331v-578q0 -210 -161 -338q-159 -126 -375 -126q-160 0 -294 69
q-133 69 -200 207zM406 1034v-108q0 -72 91 -102t182 0t91 102v108q0 72 -91 102t-182 0t-91 -102z" />
    <glyph glyph-name="colon" unicode=":" horiz-adv-x="567" 
d="M80 805q0 83 60 142q61 59 145 59q82 0 143 -59q59 -58 59 -142q0 -88 -59 -147q-60 -60 -143 -60q-85 0 -145 60t-60 147zM80 217q0 89 59 147t146 58q86 0 144 -58t58 -147q0 -85 -59 -144q-61 -61 -143 -61q-84 0 -145 61q-60 60 -60 144z" />
    <glyph glyph-name="semicolon" unicode=";" horiz-adv-x="600" 
d="M92 782q0 86 58 144q57 57 147 57q86 0 143 -57q58 -58 58 -144t-58 -147q-57 -60 -143 -60q-90 0 -147 60q-58 61 -58 147zM522 260l-188 -522h-320l125 522h383z" />
    <glyph glyph-name="less" unicode="&#x3c;" horiz-adv-x="911" 
d="M801 784l-330 -186q322 -174 330 -178v-408l-750 475v224l750 481v-408z" />
    <glyph glyph-name="equal" unicode="=" horiz-adv-x="1081" 
d="M985 971v-318h-889v318h889zM985 555v-319h-889v319h889z" />
    <glyph glyph-name="greater" unicode="&#x3e;" horiz-adv-x="911" 
d="M860 711v-224l-751 -475v408l346 178l-346 186v408z" />
    <glyph glyph-name="question" unicode="?" horiz-adv-x="1005" 
d="M252 1018l-209 178q73 139 189 209q116 71 240 66q120 -4 231 -56t180 -160t69 -243q0 -145 -90 -262q-91 -118 -262 -142l-20 -239h-308l-20 467q131 -56 235 -8q105 48 105 161q0 71 -67 108q-66 36 -150 15t-123 -94zM240 133q0 79 53 132q52 52 133 52q79 0 131 -52
q53 -53 53 -132q0 -77 -53 -132q-52 -54 -131 -54q-78 0 -132 54t-54 132z" />
    <glyph glyph-name="at" unicode="@" horiz-adv-x="1554" 
d="M1024 1102l147 -37q-49 69 -148 106q-98 37 -196 37q-157 0 -276 -86t-176 -212q-58 -128 -58 -265q0 -247 172 -374q173 -128 429 -50l55 -196q-135 -43 -256 -43q-281 0 -471 200q-191 202 -176 516q15 191 104 358q89 168 259 281t376 113q110 0 215 -27
q134 -39 248 -126q116 -88 170 -191q92 -180 52 -404q-41 -227 -189 -354q-50 -45 -124 -75q-73 -29 -149 -29q-88 0 -149 43q-63 -39 -146 -39q-159 0 -261 112q-101 111 -101 283q0 197 117 347q118 151 280 151q115 0 215 -82zM1206 1014l-96 -525q76 34 117 127
q41 92 39 193q-1 100 -41 168zM768 500q60 0 92 32l66 302q-108 114 -203 34q-76 -61 -82 -184q-5 -92 45 -152q29 -32 82 -32z" />
    <glyph glyph-name="A" unicode="A" horiz-adv-x="1327" 
d="M827 1450l519 -1450h-394l-94 291h-387l-90 -291h-393l506 1450h333zM553 616h217l-100 424h-11z" />
    <glyph glyph-name="B" unicode="B" horiz-adv-x="1277" 
d="M1167 1008q-1 -58 -40 -129q-38 -70 -109 -107q133 -67 178 -180q45 -112 27 -217q-60 -375 -516 -375h-592v1450h581q213 0 345 -120t126 -322zM483 883h213q84 0 120 64t1 129t-121 65h-213v-258zM483 322h213q106 0 147 74q42 76 -1 149t-146 73h-213v-296z" />
    <glyph glyph-name="C" unicode="C" horiz-adv-x="1191" 
d="M854 453l320 -148q-56 -110 -149 -188t-184 -107q-93 -30 -190 -30q-231 0 -401 131t-170 364v500q0 159 85 272q87 116 214 169q129 54 278 54q156 0 292 -77q139 -79 218 -256l-299 -121q-46 85 -150 109q-103 24 -188 -20q-84 -43 -84 -130v-500q0 -63 53 -104
t121 -48q69 -8 137 25t97 105z" />
    <glyph glyph-name="D" unicode="D" horiz-adv-x="1302" 
d="M115 1450h542q153 0 276 -49t206 -162q82 -112 82 -274v-488q0 -236 -163 -357q-164 -122 -401 -120h-542v1450zM483 344h187q90 0 136 42t46 116v452q0 73 -46 113q-47 41 -136 41h-187v-764z" />
    <glyph glyph-name="E" unicode="E" 
d="M485 1106v-225h588v-318h-588v-217h639v-346h-1009v1450h1009v-344h-639z" />
    <glyph glyph-name="F" unicode="F" horiz-adv-x="1179" 
d="M485 1102v-260h559v-342h-559v-500h-370v1450h1009v-348h-639z" />
    <glyph glyph-name="G" unicode="G" horiz-adv-x="1277" 
d="M1157 1161l-307 -141q-29 70 -96 101q-68 32 -136 24q-66 -7 -119 -53q-53 -45 -53 -113v-498q0 -79 67 -126q65 -46 145 -46q81 0 146 46q66 47 66 126v54h-231v307h584v-361q0 -237 -167 -369q-166 -132 -403 -132q-234 0 -403 133q-170 134 -170 368v498
q0 230 170 361q169 130 403 130q101 0 193 -27q91 -27 178 -100q88 -74 133 -182z" />
    <glyph glyph-name="H" unicode="H" horiz-adv-x="1384" 
d="M483 547v-547h-368v1450h368v-549h418v549h369v-1450h-369v547h-418z" />
    <glyph glyph-name="I" unicode="I" horiz-adv-x="595" 
d="M481 1450v-1450h-366v1450h366z" />
    <glyph glyph-name="J" unicode="J" horiz-adv-x="1202" 
d="M6 426l346 72q15 -83 74 -123q61 -41 133 -41q71 0 123 39q53 39 53 100v645h-329v332h692v-977q0 -226 -166 -359q-167 -134 -387 -134q-204 0 -357 114t-182 332z" />
    <glyph glyph-name="K" unicode="K" horiz-adv-x="1310" 
d="M483 913l394 537h456l-573 -700l571 -750h-465l-370 518l-13 -16v-502h-368v1450h368v-537z" />
    <glyph glyph-name="L" unicode="L" horiz-adv-x="1103" 
d="M115 0v1450h368v-1088h590v-362h-958z" />
    <glyph glyph-name="M" unicode="M" horiz-adv-x="1574" 
d="M115 0v1450h366l305 -709l308 709h366v-1450h-368l2 418l22 293l-12 2l-191 -498h-251l-195 498l-10 -2l24 -293v-418h-366z" />
    <glyph glyph-name="N" unicode="N" horiz-adv-x="1384" 
d="M115 0v1450h348l350 -619l123 -290l10 2l-20 125l-21 125v657h365v-1450h-371l-328 571l-127 291l-10 -2l47 -280v-580h-366z" />
    <glyph glyph-name="O" unicode="O" horiz-adv-x="1361" 
d="M80 477v496q0 235 177 366q178 131 423 131q244 0 423 -131t179 -366v-496q0 -236 -178 -366q-179 -131 -422 -131q-244 0 -423 131t-179 366zM446 973v-496q0 -76 70 -117t166 -41q95 0 164 42t69 116v496q0 80 -70 122q-71 42 -169 42q-91 0 -161 -44q-69 -43 -69 -120
z" />
    <glyph glyph-name="P" unicode="P" horiz-adv-x="1265" 
d="M115 0v1450h579q170 0 294 -76q123 -76 180 -189q57 -114 57 -247q0 -208 -141 -361t-388 -153h-215v-424h-366zM481 750h213v358h-213v-358z" />
    <glyph glyph-name="Q" unicode="Q" horiz-adv-x="1361" 
d="M80 477v496q0 235 177 366q178 131 423 131q244 0 423 -131t179 -366v-496q0 -141 -74 -256l113 -115l-203 -182l-119 123q-143 -67 -317 -67q-244 0 -423 131t-179 366zM446 973v-496q0 -95 97 -145q96 -49 188 -10l-119 122l203 177l100 -103v455q0 81 -73 124
q-75 44 -161 43q-88 -2 -161 -45q-74 -44 -74 -122z" />
    <glyph glyph-name="R" unicode="R" horiz-adv-x="1323" 
d="M887 0l-336 461h-66v-461h-370v1450h579q239 0 386 -117t153 -360q0 -385 -285 -475l395 -498h-456zM485 776h215q109 0 154 83t0 166t-154 83h-215v-332z" />
    <glyph glyph-name="S" unicode="S" horiz-adv-x="1155" 
d="M45 242l231 217q41 -51 104 -86t124 -45q58 -10 117 -5q54 4 92 33q37 28 39 74q1 57 -72 94q-69 35 -176 51q-191 30 -319 149t-128 312q0 203 155 319q154 115 370 115q304 0 495 -231l-239 -184q-74 78 -172 105q-100 27 -171 -4q-74 -32 -75 -114q6 -94 192 -135
q81 -15 154 -35q62 -17 137 -56q71 -37 116 -88q44 -50 71 -131q27 -80 22 -183q-6 -133 -95 -236q-88 -102 -215 -150q-126 -48 -263 -48q-135 0 -265 67t-229 195z" />
    <glyph glyph-name="T" unicode="T" horiz-adv-x="1198" 
d="M1169 1104h-385v-1104h-370v1104h-385v348h1140v-348z" />
    <glyph glyph-name="U" unicode="U" horiz-adv-x="1366" 
d="M477 1450v-965q0 -65 43 -111t104 -57q60 -10 121 0q61 11 105 57q43 46 43 111v965h371v-965q0 -111 -40 -201q-40 -91 -108 -151q-66 -58 -154 -101q-88 -42 -183 -50t-191 0q-96 7 -184 50q-89 43 -153 101q-68 62 -106 151q-39 92 -39 201v965h371z" />
    <glyph glyph-name="V" unicode="V" horiz-adv-x="1343" 
d="M739 741l230 711h393l-522 -1450h-336l-522 1450h393l227 -709l66 -344h6z" />
    <glyph glyph-name="W" unicode="W" horiz-adv-x="1873" 
d="M1319 752l176 698h379l-418 -1450h-340l-129 401l-51 332h-6l-56 -330l-114 -403h-340l-420 1450h381l172 -694l37 -307h10l35 305l162 508h278l150 -510l47 -303h6z" />
    <glyph glyph-name="X" unicode="X" horiz-adv-x="1343" 
d="M670 954l254 496h426l-406 -727l406 -723h-426l-254 494l-248 -494h-428l407 723l-407 727h428z" />
    <glyph glyph-name="Y" unicode="Y" horiz-adv-x="1341" 
d="M854 0h-367v571l-505 879h426l262 -532l262 532h430l-508 -879v-571z" />
    <glyph glyph-name="Z" unicode="Z" horiz-adv-x="1239" 
d="M74 1450h1054l78 -123l-624 -993l589 4v-338h-1075l-67 135l626 975h-581v340z" />
    <glyph glyph-name="bracketleft" unicode="[" horiz-adv-x="671" 
d="M453 1114v-981h141v-338h-492v1659h492v-340h-141z" />
    <glyph glyph-name="backslash" unicode="\" horiz-adv-x="1030" 
d="M666 -119l-627 1575l330 115l622 -1579z" />
    <glyph glyph-name="bracketright" unicode="]" horiz-adv-x="671" 
d="M215 129v991h-137v334h491v-1659h-491v334h137z" />
    <glyph glyph-name="asciicircum" unicode="^" horiz-adv-x="1335" 
d="M760 1448l520 -621h-424l-199 236l-194 -236h-410l506 621h201z" />
    <glyph glyph-name="underscore" unicode="_" horiz-adv-x="1214" 
d="M1122 70v-346h-1032v346h1032z" />
    <glyph glyph-name="grave" unicode="`" horiz-adv-x="831" 
d="M627 1548h-318l-268 340h381z" />
    <glyph glyph-name="a" unicode="a" horiz-adv-x="1327" 
d="M827 1450l519 -1450h-394l-94 291h-387l-90 -291h-393l506 1450h333zM553 616h217l-100 424h-11z" />
    <glyph glyph-name="b" unicode="b" horiz-adv-x="1277" 
d="M1167 1008q-1 -58 -40 -129q-38 -70 -109 -107q133 -67 178 -180q45 -112 27 -217q-60 -375 -516 -375h-592v1450h581q213 0 345 -120t126 -322zM483 883h213q84 0 120 64t1 129t-121 65h-213v-258zM483 322h213q106 0 147 74q42 76 -1 149t-146 73h-213v-296z" />
    <glyph glyph-name="c" unicode="c" horiz-adv-x="1191" 
d="M854 453l320 -148q-56 -110 -149 -188t-184 -107q-93 -30 -190 -30q-231 0 -401 131t-170 364v500q0 159 85 272q87 116 214 169q129 54 278 54q156 0 292 -77q139 -79 218 -256l-299 -121q-46 85 -150 109q-103 24 -188 -20q-84 -43 -84 -130v-500q0 -63 53 -104
t121 -48q69 -8 137 25t97 105z" />
    <glyph glyph-name="d" unicode="d" horiz-adv-x="1302" 
d="M115 1450h542q153 0 276 -49t206 -162q82 -112 82 -274v-488q0 -236 -163 -357q-164 -122 -401 -120h-542v1450zM483 344h187q90 0 136 42t46 116v452q0 73 -46 113q-47 41 -136 41h-187v-764z" />
    <glyph glyph-name="e" unicode="e" 
d="M485 1106v-225h588v-318h-588v-217h639v-346h-1009v1450h1009v-344h-639z" />
    <glyph glyph-name="f" unicode="f" horiz-adv-x="1179" 
d="M485 1102v-260h559v-342h-559v-500h-370v1450h1009v-348h-639z" />
    <glyph glyph-name="g" unicode="g" horiz-adv-x="1277" 
d="M1157 1161l-307 -141q-29 70 -96 101q-68 32 -136 24q-66 -7 -119 -53q-53 -45 -53 -113v-498q0 -79 67 -126q65 -46 145 -46q81 0 146 46q66 47 66 126v54h-231v307h584v-361q0 -237 -167 -369q-166 -132 -403 -132q-234 0 -403 133q-170 134 -170 368v498
q0 230 170 361q169 130 403 130q101 0 193 -27q91 -27 178 -100q88 -74 133 -182z" />
    <glyph glyph-name="h" unicode="h" horiz-adv-x="1384" 
d="M483 547v-547h-368v1450h368v-549h418v549h369v-1450h-369v547h-418z" />
    <glyph glyph-name="i" unicode="i" horiz-adv-x="595" 
d="M481 1450v-1450h-366v1450h366z" />
    <glyph glyph-name="j" unicode="j" horiz-adv-x="1202" 
d="M6 426l346 72q15 -83 74 -123q61 -41 133 -41q71 0 123 39q53 39 53 100v645h-329v332h692v-977q0 -226 -166 -359q-167 -134 -387 -134q-204 0 -357 114t-182 332z" />
    <glyph glyph-name="k" unicode="k" horiz-adv-x="1310" 
d="M483 913l394 537h456l-573 -700l571 -750h-465l-370 518l-13 -16v-502h-368v1450h368v-537z" />
    <glyph glyph-name="l" unicode="l" horiz-adv-x="1103" 
d="M115 0v1450h368v-1088h590v-362h-958z" />
    <glyph glyph-name="m" unicode="m" horiz-adv-x="1574" 
d="M115 0v1450h366l305 -709l308 709h366v-1450h-368l2 418l22 293l-12 2l-191 -498h-251l-195 498l-10 -2l24 -293v-418h-366z" />
    <glyph glyph-name="n" unicode="n" horiz-adv-x="1384" 
d="M115 0v1450h348l350 -619l123 -290l10 2l-20 125l-21 125v657h365v-1450h-371l-328 571l-127 291l-10 -2l47 -280v-580h-366z" />
    <glyph glyph-name="o" unicode="o" horiz-adv-x="1361" 
d="M80 477v496q0 235 177 366q178 131 423 131q244 0 423 -131t179 -366v-496q0 -236 -178 -366q-179 -131 -422 -131q-244 0 -423 131t-179 366zM446 973v-496q0 -76 70 -117t166 -41q95 0 164 42t69 116v496q0 80 -70 122q-71 42 -169 42q-91 0 -161 -44q-69 -43 -69 -120
z" />
    <glyph glyph-name="p" unicode="p" horiz-adv-x="1265" 
d="M115 0v1450h579q170 0 294 -76q123 -76 180 -189q57 -114 57 -247q0 -208 -141 -361t-388 -153h-215v-424h-366zM481 750h213v358h-213v-358z" />
    <glyph glyph-name="q" unicode="q" horiz-adv-x="1361" 
d="M80 477v496q0 235 177 366q178 131 423 131q244 0 423 -131t179 -366v-496q0 -141 -74 -256l113 -115l-203 -182l-119 123q-143 -67 -317 -67q-244 0 -423 131t-179 366zM446 973v-496q0 -95 97 -145q96 -49 188 -10l-119 122l203 177l100 -103v455q0 81 -73 124
q-75 44 -161 43q-88 -2 -161 -45q-74 -44 -74 -122z" />
    <glyph glyph-name="r" unicode="r" horiz-adv-x="1323" 
d="M887 0l-336 461h-66v-461h-370v1450h579q239 0 386 -117t153 -360q0 -385 -285 -475l395 -498h-456zM485 776h215q109 0 154 83t0 166t-154 83h-215v-332z" />
    <glyph glyph-name="s" unicode="s" horiz-adv-x="1155" 
d="M45 242l231 217q41 -51 104 -86t124 -45q58 -10 117 -5q54 4 92 33q37 28 39 74q1 57 -72 94q-69 35 -176 51q-191 30 -319 149t-128 312q0 203 155 319q154 115 370 115q304 0 495 -231l-239 -184q-74 78 -172 105q-100 27 -171 -4q-74 -32 -75 -114q6 -94 192 -135
q81 -15 154 -35q62 -17 137 -56q71 -37 116 -88q44 -50 71 -131q27 -80 22 -183q-6 -133 -95 -236q-88 -102 -215 -150q-126 -48 -263 -48q-135 0 -265 67t-229 195z" />
    <glyph glyph-name="t" unicode="t" horiz-adv-x="1198" 
d="M1169 1104h-385v-1104h-370v1104h-385v348h1140v-348z" />
    <glyph glyph-name="u" unicode="u" horiz-adv-x="1366" 
d="M477 1450v-965q0 -65 43 -111t104 -57q60 -10 121 0q61 11 105 57q43 46 43 111v965h371v-965q0 -111 -40 -201q-40 -91 -108 -151q-66 -58 -154 -101q-88 -42 -183 -50t-191 0q-96 7 -184 50q-89 43 -153 101q-68 62 -106 151q-39 92 -39 201v965h371z" />
    <glyph glyph-name="v" unicode="v" horiz-adv-x="1343" 
d="M739 741l230 711h393l-522 -1450h-336l-522 1450h393l227 -709l66 -344h6z" />
    <glyph glyph-name="w" unicode="w" horiz-adv-x="1873" 
d="M1319 752l176 698h379l-418 -1450h-340l-129 401l-51 332h-6l-56 -330l-114 -403h-340l-420 1450h381l172 -694l37 -307h10l35 305l162 508h278l150 -510l47 -303h6z" />
    <glyph glyph-name="x" unicode="x" horiz-adv-x="1343" 
d="M670 954l254 496h426l-406 -727l406 -723h-426l-254 494l-248 -494h-428l407 723l-407 727h428z" />
    <glyph glyph-name="y" unicode="y" horiz-adv-x="1341" 
d="M854 0h-367v571l-505 879h426l262 -532l262 532h430l-508 -879v-571z" />
    <glyph glyph-name="z" unicode="z" horiz-adv-x="1239" 
d="M74 1450h1054l78 -123l-624 -993l589 4v-338h-1075l-67 135l626 975h-581v340z" />
    <glyph glyph-name="braceleft" unicode="{" horiz-adv-x="718" 
d="M520 1120v-264q0 -70 -42 -143q-43 -75 -105 -99q68 -24 108 -94q39 -69 39 -149v-242h121v-334h-184q-162 0 -225 79q-62 78 -62 237v227q0 108 -111 108v334q111 0 111 107v250q0 153 69 235t234 82h168v-334h-121z" />
    <glyph glyph-name="bar" unicode="|" horiz-adv-x="550" 
d="M449 -276h-347v1759h347v-1759z" />
    <glyph glyph-name="braceright" unicode="}" horiz-adv-x="704" 
d="M80 1450h141q195 0 253 -76t58 -241v-246q0 -107 113 -107v-334q-113 0 -113 -108v-244q0 -159 -66 -237t-249 -78h-137v334h104v258q-4 75 44 148q49 73 114 97q-64 31 -114 100q-50 70 -44 140v260h-104v334z" />
    <glyph glyph-name="asciitilde" unicode="~" horiz-adv-x="1001" 
d="M741 801l209 -174q-147 -252 -329 -252q-51 0 -104 28q-46 25 -87 54q-33 24 -74 15q-39 -9 -77 -73l-228 191q158 233 320 233q49 0 94 -23q54 -28 79 -47q29 -22 64 -38q33 -15 66 5q32 19 67 81z" />
    <glyph glyph-name="uni00A0" unicode="&#xa0;" horiz-adv-x="372" 
 />
    <glyph glyph-name="exclamdown" unicode="&#xa1;" horiz-adv-x="548" 
d="M477 852q0 -88 -58 -146q-59 -59 -147 -59q-86 0 -144 58q-56 56 -56 147q0 87 56 143q58 58 144 58q88 0 147 -59q58 -58 58 -142zM449 596v-973h-351v973h351z" />
    <glyph glyph-name="cent" unicode="&#xa2;" horiz-adv-x="978" 
d="M651 1202v-149q198 -60 258 -271l-291 -90q-7 37 -30 61q-21 22 -50 27q-27 4 -56 -2q-28 -6 -45 -29t-17 -57v-323q0 -54 44 -78q45 -25 96 -4q53 21 71 80l299 -68q-69 -223 -279 -291v-149h-262v143q-135 33 -221 128t-86 245v309q0 150 86 245t221 128v145h262z" />
    <glyph glyph-name="sterling" unicode="&#xa3;" horiz-adv-x="1085" 
d="M1026 1284l-203 -194q-64 70 -150 43q-87 -27 -87 -123v-144h344v-313h-344v-229h422v-324h-932v324h160v229h-160v313h160v154q0 80 22 150q23 73 71 139q46 63 137 105q87 40 210 40q86 0 181 -42t169 -128z" />
    <glyph glyph-name="currency" unicode="&#xa4;" horiz-adv-x="1261" 
d="M70 350l94 101q-49 101 -49 227q0 111 49 227l-98 96l233 250l109 -108q106 47 221 47q110 0 223 -51l111 110l231 -248l-100 -98q51 -107 51 -225q0 -122 -49 -229l98 -95l-231 -248l-109 109q-95 -49 -225 -49q-119 0 -221 47l-111 -104zM426 676q0 -85 59 -144
t144 -59q82 0 141 59t59 144q0 87 -59 146q-61 61 -141 61q-83 0 -144 -61q-59 -59 -59 -146z" />
    <glyph glyph-name="yen" unicode="&#xa5;" horiz-adv-x="1458" 
d="M1153 739l-47 -221h-195v-63h242l-47 -222h-195v-233h-366v233h-223l45 222h178v63h-223l45 221h82l-410 711h426l262 -553l262 553h430l-411 -711h145z" />
    <glyph glyph-name="brokenbar" unicode="&#xa6;" horiz-adv-x="561" 
d="M455 641h-349v711h349v-711zM455 -225h-349v772h349v-772z" />
    <glyph glyph-name="section" unicode="&#xa7;" horiz-adv-x="972" 
d="M74 76l239 160q39 -54 94 -73q56 -19 98 -3t42 55q0 33 -49 66q-44 30 -120 65q-68 32 -142 75q-71 41 -121 108q-49 65 -49 149q0 145 102 217q-66 78 -66 178q0 173 121 276t285 103q201 0 346 -217l-242 -145q-27 45 -65 54q-39 9 -67 -14q-27 -22 -27 -57
q0 -36 47 -66q50 -32 113 -58q72 -30 135 -63q66 -35 114 -103q47 -67 47 -158q0 -126 -98 -205q78 -96 78 -217q0 -149 -122 -260q-121 -111 -290 -111q-111 0 -221 64q-109 63 -182 180zM428 625l164 -78q49 51 1 101t-194 110q-52 -31 -40 -71q12 -39 69 -62z" />
    <glyph glyph-name="dieresis" unicode="&#xa8;" horiz-adv-x="1044" 
d="M102 1708q0 73 51 124q50 50 121 50q72 0 122 -50t50 -124q0 -71 -50 -121q-49 -49 -122 -49q-72 0 -121 49q-51 51 -51 121zM596 1708q0 75 49 124q50 50 123 50q74 0 124 -50t50 -124q0 -71 -50 -121q-49 -49 -124 -49q-74 0 -123 49t-49 121z" />
    <glyph glyph-name="copyright" unicode="&#xa9;" horiz-adv-x="1593" 
d="M61 719q0 303 218 519q217 216 520 216t518 -216q215 -217 215 -519t-215 -519q-215 -216 -518 -216q-305 0 -521 216q-217 217 -217 519zM272 719q0 -219 154 -373q153 -153 373 -153q216 0 369 153t153 373q0 219 -153 372q-152 152 -369 152q-221 0 -373 -152
q-154 -154 -154 -372zM406 827v-227q0 -164 116 -252t277 -88q129 0 242 64q112 63 149 196l-197 74q-15 -54 -56 -87q-42 -35 -93 -39q-55 -5 -101 5q-51 11 -84 44q-35 35 -41 81v231q6 46 41 81q33 33 84 44q46 10 101 5q52 -5 93 -38t56 -87l193 73q-38 134 -147 197
t-240 63q-161 0 -277 -88t-116 -252z" />
    <glyph glyph-name="ordfeminine" unicode="&#xaa;" horiz-adv-x="763" 
d="M193 1176l-115 106q78 121 222 151t260 -45t116 -227v-477q-119 -32 -209 -39q-101 -8 -195 7t-152 82q-57 66 -57 179q0 86 41 145q40 57 102 79q58 20 128 25t121 -17q-5 80 -102 86q-98 6 -160 -55zM440 829v136q-43 22 -98 6t-57 -64q0 -56 50 -74q51 -19 105 -4z
" />
    <glyph glyph-name="guillemotleft" unicode="&#xab;" horiz-adv-x="1255" 
d="M367 1073l297 -176l-211 -309l213 -314l-301 -176l-326 490zM895 1073l297 -176l-213 -313l217 -308l-301 -178l-328 490z" />
    <glyph glyph-name="logicalnot" unicode="&#xac;" horiz-adv-x="1181" 
d="M82 532v347h997v-617h-344v270h-653z" />
    <glyph glyph-name="uni00AD" unicode="&#xad;" horiz-adv-x="833" 
d="M737 680v-350h-641v350h641z" />
    <glyph glyph-name="registered" unicode="&#xae;" horiz-adv-x="1593" 
d="M61 719q0 303 218 519q217 216 520 216t518 -216q215 -217 215 -519t-215 -519q-215 -216 -518 -216q-305 0 -521 216q-217 217 -217 519zM281 719q0 -217 152 -369q153 -153 370 -153q212 0 365 153t153 369q0 214 -153 367t-365 153q-216 0 -370 -152
q-152 -151 -152 -368zM500 346v733h331q119 0 191 -62q73 -62 88 -143q14 -77 -24 -160q-38 -81 -121 -114l176 -254h-238l-160 240h-43v-240h-200zM700 750h125q52 0 72 38q21 38 -1 78q-21 39 -73 39h-123v-155z" />
    <glyph glyph-name="macron" unicode="&#xaf;" horiz-adv-x="813" 
d="M102 1552v275h609v-275h-609z" />
    <glyph glyph-name="degree" unicode="&#xb0;" horiz-adv-x="772" 
d="M387 803q-140 0 -239 99t-99 239q0 141 98 238q100 98 240 98q138 0 238 -98q98 -97 98 -238q0 -137 -99 -238q-99 -100 -237 -100zM387 1038q45 0 74 29q28 28 28 70q0 44 -29 74q-30 32 -73 32t-73 -32q-29 -30 -29 -74q0 -42 28 -70q29 -29 74 -29z" />
    <glyph glyph-name="plusminus" unicode="&#xb1;" horiz-adv-x="1103" 
d="M375 1065v270h348v-270h289v-348h-289v-268h-348v268h-283v348h283zM1014 371v-344h-924v344h924z" />
    <glyph glyph-name="twosuperior" unicode="&#xb2;" horiz-adv-x="815" 
d="M258 1090l-188 161q113 179 315 179q148 0 240 -92t92 -220q0 -141 -107 -231l-121 -115h244v-268h-616l-58 155l318 361q72 82 33 127q-32 37 -91 6q-38 -21 -61 -63z" />
    <glyph glyph-name="threesuperior" unicode="&#xb3;" horiz-adv-x="763" 
d="M268 1090h103q39 0 45 43q6 51 -39 67q-11 4 -31 4q-66 -4 -104 -51l-156 131q66 71 123 106q52 32 131 37q87 5 161 -34q72 -38 114 -101q40 -61 31 -140q-9 -77 -79 -146q80 -38 112 -107q32 -70 14 -141q-18 -74 -68 -129q-79 -87 -197 -109q-117 -22 -228 28
q-110 50 -161 157l186 116q23 -41 72 -54t89 6t40 61q0 17 -15 35t-38 16h-105v205z" />
    <glyph glyph-name="acute" unicode="&#xb4;" horiz-adv-x="790" 
d="M791 1888l-269 -340h-317l205 340h381z" />
    <glyph glyph-name="mu" unicode="&#xb5;" horiz-adv-x="1081" 
d="M688 -2l-12 78q-53 -79 -120 -77q-66 2 -110 71v-422h-350v1409h350v-635q0 -64 47 -91q46 -27 92 -2t46 91v637h352l4 -1061z" />
    <glyph glyph-name="paragraph" unicode="&#xb6;" horiz-adv-x="1353" 
d="M467 -170v616q-198 27 -309 166q-111 140 -111 318q0 201 132 345t370 144h688v-1589h-344v1257h-82v-1257h-344z" />
    <glyph glyph-name="periodcentered" unicode="&#xb7;" horiz-adv-x="540" 
d="M68 621q0 87 57 147q56 59 147 59q87 0 144 -60t57 -146q0 -87 -57 -144t-144 -57q-90 0 -147 57t-57 144z" />
    <glyph glyph-name="cedilla" unicode="&#xb8;" horiz-adv-x="788" 
d="M600 82l-65 -145q77 -21 119 -75q42 -53 37 -118q-4 -61 -36 -124q-30 -59 -99 -100q-68 -40 -155 -40q-173 0 -299 104l66 176q42 -30 94 -50q45 -17 85 -11q38 6 48 43t-34 69q-43 31 -121 37l104 234h256z" />
    <glyph glyph-name="onesuperior" unicode="&#xb9;" horiz-adv-x="593" 
d="M117 1024l-103 143l258 281h220v-903h-275v536z" />
    <glyph glyph-name="ordmasculine" unicode="&#xba;" horiz-adv-x="839" 
d="M420 610q-142 0 -247 81t-105 224v246q0 143 105 224t247 81t247 -81t105 -224v-246q0 -143 -105 -224t-247 -81zM344 1161v-246q0 -43 38 -61q39 -19 76 -1q38 18 38 62v244q0 45 -38 65q-37 19 -76 1q-38 -18 -38 -64z" />
    <glyph glyph-name="guillemotright" unicode="&#xbb;" horiz-adv-x="1234" 
d="M362 100l-303 174l215 314l-211 309l295 178l330 -487zM870 98l-297 178l211 312l-213 311l301 174l326 -485z" />
    <glyph glyph-name="onequarter" unicode="&#xbc;" horiz-adv-x="1699" 
d="M1350 1329l-865 -1421l-239 143l864 1422zM520 557v903h-219l-258 -280l102 -144l101 58v-537h274zM1559 958h-232l-491 -596l118 -184h330v-178h275v178h73v240h-73v540zM1309 410h-172l168 192l8 -2z" />
    <glyph glyph-name="onehalf" unicode="&#xbd;" horiz-adv-x="1755" 
d="M1364 1329l-866 -1421l-236 145l864 1420zM520 557v903h-219l-258 -280l102 -144l101 58v-537h274zM1038 729l187 -156q45 78 110 72q48 -5 49 -47q2 -42 -43 -92l-313 -348l57 -152h596v260h-229l121 111q104 88 104 223q0 125 -91 213t-236 88q-201 0 -312 -172z" />
    <glyph glyph-name="threequarters" unicode="&#xbe;" horiz-adv-x="1761" 
d="M1468 1329l-864 -1421l-231 145l864 1420zM287 897h110q26 2 40 -15q16 -19 16 -38q0 -44 -42 -63q-42 -20 -95 -6q-52 13 -74 56l-195 -118q52 -110 168 -162q115 -52 240 -29q124 22 207 113q52 59 70 133t-15 144q-33 71 -117 110q74 68 84 149t-32 145
q-42 63 -121 103q-81 41 -169 37q-80 -4 -138 -39q-60 -35 -128 -108l164 -135q38 48 109 53q61 1 71 -51q8 -46 -26 -64q-7 -4 -19 -4h-108v-211zM1413 926l-475 -576l115 -178h333v-172h242v172h72v231h-72v523h-215zM1229 395l162 187l8 -2l-4 -185h-166z" />
    <glyph glyph-name="questiondown" unicode="&#xbf;" horiz-adv-x="997" 
d="M762 891q0 -79 -53 -132q-52 -52 -134 -52q-79 0 -131 52q-53 53 -53 132q0 77 53 132q53 54 131 54q79 0 133 -54t54 -132zM958 -172l-208 178q-39 -73 -123 -94q-85 -21 -151 15t-66 108q0 113 104 161q105 48 236 -8l-21 459h-307l-21 -231q-171 -24 -262 -142
q-90 -117 -90 -262q0 -133 70 -243q70 -109 179 -160q111 -52 231 -56q124 -5 240 66q116 70 189 209z" />
    <glyph glyph-name="Agrave" unicode="&#xc0;" horiz-adv-x="1327" 
d="M872 1548h-317l-268 340h381zM827 1450l519 -1450h-394l-94 291h-387l-90 -291h-393l506 1450h333zM553 616h217l-100 424h-11z" />
    <glyph glyph-name="Aacute" unicode="&#xc1;" horiz-adv-x="1327" 
d="M1038 1888l-268 -340h-317l204 340h381zM827 1450l519 -1450h-394l-94 291h-387l-90 -291h-393l506 1450h333zM553 616h217l-100 424h-11z" />
    <glyph glyph-name="Acircumflex" unicode="&#xc2;" horiz-adv-x="1327" 
d="M782 1892l308 -344h-332l-94 107l-91 -107h-346l316 344h239zM827 1450l519 -1450h-394l-94 291h-387l-90 -291h-393l506 1450h333zM553 616h217l-100 424h-11z" />
    <glyph glyph-name="Atilde" unicode="&#xc3;" horiz-adv-x="1327" 
d="M449 1534l-179 100q47 248 260 242q36 0 88 -23q42 -18 85 -41q35 -18 70 -8t58 64l187 -107q-28 -113 -83 -174q-53 -59 -130 -57q-53 0 -112 22q-67 25 -98 40q-37 18 -78 7q-40 -10 -68 -65zM827 1450l519 -1450h-394l-94 291h-387l-90 -291h-393l506 1450h333z
M553 616h217l-100 424h-11z" />
    <glyph glyph-name="Adieresis" unicode="&#xc4;" horiz-adv-x="1327" 
d="M244 1708q0 74 50 124t122 50t122 -50t50 -124q0 -71 -50 -121q-49 -49 -122 -49t-122 49q-50 50 -50 121zM737 1708q0 75 49 124q50 50 123 50q74 0 124 -50t50 -124q0 -71 -50 -121q-49 -49 -124 -49q-74 0 -123 49t-49 121zM827 1450l519 -1450h-394l-94 291h-387
l-90 -291h-393l506 1450h333zM553 616h217l-100 424h-11z" />
    <glyph glyph-name="Aring" unicode="&#xc5;" horiz-adv-x="1327" 
d="M952 0l-94 291h-387l-90 -291h-393l491 1409q-82 76 -82 190q0 109 78 188t191 79q109 0 185 -82q77 -83 77 -187q0 -112 -84 -190l502 -1407h-394zM666 1677q-37 0 -57 -23q-21 -24 -21 -59q0 -27 21 -49t57 -22q32 0 52 19q21 19 21 52q0 34 -21 58t-52 24zM670 1040
h-11l-106 -424h217z" />
    <glyph glyph-name="AE" unicode="&#xc6;" horiz-adv-x="1708" 
d="M1626 1090h-502v-191h451v-354h-451v-195h502v-350h-850v393h-221l-141 -393h-441l619 1450h1034v-360zM647 707h148l8 368h-17z" />
    <glyph glyph-name="Ccedilla" unicode="&#xc7;" horiz-adv-x="1191" 
d="M854 453l320 -148q-123 -243 -383 -309l-27 -59q78 -21 120 -75q42 -53 37 -118q-4 -61 -36 -124q-29 -58 -100 -100q-68 -40 -154 -40q-173 0 -299 104l65 176q41 -29 95 -50q45 -17 85 -11q38 6 48 43t-34 69q-43 31 -122 37l63 142q-194 30 -323 157
q-129 128 -129 328v500q0 159 85 272q87 116 214 169q129 54 278 54q156 0 292 -77q139 -79 218 -256l-299 -121q-46 85 -150 109q-103 24 -188 -20q-84 -43 -84 -130v-500q0 -63 53 -104t121 -48q69 -8 137 25t97 105z" />
    <glyph glyph-name="Egrave" unicode="&#xc8;" 
d="M842 1548h-318l-268 340h381zM485 1106v-225h588v-318h-588v-217h639v-346h-1009v1450h1009v-344h-639z" />
    <glyph glyph-name="Eacute" unicode="&#xc9;" 
d="M1008 1888l-269 -340h-317l205 340h381zM485 1106v-225h588v-318h-588v-217h639v-346h-1009v1450h1009v-344h-639z" />
    <glyph glyph-name="Ecircumflex" unicode="&#xca;" 
d="M752 1892l307 -344h-332l-94 107l-90 -107h-346l315 344h240zM485 1106v-225h588v-318h-588v-217h639v-346h-1009v1450h1009v-344h-639z" />
    <glyph glyph-name="Edieresis" unicode="&#xcb;" 
d="M213 1708q0 74 50 124t122 50t122 -50t50 -124q0 -71 -50 -121q-49 -49 -122 -49t-122 49q-50 50 -50 121zM707 1708q0 75 49 124q50 50 123 50t123 -50q51 -51 51 -124q0 -70 -51 -121q-49 -49 -123 -49t-123 49t-49 121zM485 1106v-225h588v-318h-588v-217h639v-346
h-1009v1450h1009v-344h-639z" />
    <glyph glyph-name="Igrave" unicode="&#xcc;" horiz-adv-x="595" 
d="M508 1548h-318l-268 340h381zM481 1450v-1450h-366v1450h366z" />
    <glyph glyph-name="Iacute" unicode="&#xcd;" horiz-adv-x="595" 
d="M674 1888l-268 -340h-318l205 340h381zM481 1450v-1450h-366v1450h366z" />
    <glyph glyph-name="Icircumflex" unicode="&#xce;" horiz-adv-x="595" 
d="M418 1892l287 -344h-332l-74 103l-70 -103h-346l295 344h240zM481 1450v-1450h-366v1450h366z" />
    <glyph glyph-name="Idieresis" unicode="&#xcf;" horiz-adv-x="595" 
d="M-88 1708q0 74 50 124t122 50t122 -50t50 -124q0 -71 -50 -121q-49 -49 -122 -49t-122 49q-50 50 -50 121zM344 1708q0 75 49 124q50 50 123 50q74 0 124 -50t50 -124q0 -71 -50 -121q-49 -49 -124 -49q-74 0 -123 49t-49 121zM481 1450v-1450h-366v1450h366z" />
    <glyph glyph-name="Eth" unicode="&#xd0;" horiz-adv-x="1314" 
d="M127 877v573h586q232 0 377 -119q143 -118 143 -360v-494q0 -240 -143 -358q-145 -119 -377 -119h-586v584h-98v293h98zM498 360h215q151 0 151 117v494q0 119 -151 119h-215v-213h170v-293h-170v-224z" />
    <glyph glyph-name="Ntilde" unicode="&#xd1;" horiz-adv-x="1384" 
d="M487 1526l-178 100q47 248 260 242q36 0 88 -23q42 -18 85 -41q35 -18 70 -8t58 64l187 -107q-28 -113 -83 -174q-53 -59 -130 -57q-53 0 -112 22q-67 25 -98 40q-37 18 -78 7t-69 -65zM115 0v1450h348l350 -619l123 -290l10 2l-20 125l-21 125v657h365v-1450h-371
l-328 571l-127 291l-10 -2l47 -280v-580h-366z" />
    <glyph glyph-name="Ograve" unicode="&#xd2;" horiz-adv-x="1361" 
d="M889 1552h-318l-268 340h381zM80 477v496q0 235 177 366q178 131 423 131q244 0 423 -131t179 -366v-496q0 -236 -178 -366q-179 -131 -422 -131q-244 0 -423 131t-179 366zM446 973v-496q0 -76 70 -117t166 -41q95 0 164 42t69 116v496q0 80 -70 122q-71 42 -169 42
q-91 0 -161 -44q-69 -43 -69 -120z" />
    <glyph glyph-name="Oacute" unicode="&#xd3;" horiz-adv-x="1361" 
d="M1055 1892l-269 -340h-317l205 340h381zM80 477v496q0 235 177 366q178 131 423 131q244 0 423 -131t179 -366v-496q0 -236 -178 -366q-179 -131 -422 -131q-244 0 -423 131t-179 366zM446 973v-496q0 -76 70 -117t166 -41q95 0 164 42t69 116v496q0 80 -70 122
q-71 42 -169 42q-91 0 -161 -44q-69 -43 -69 -120z" />
    <glyph glyph-name="Ocircumflex" unicode="&#xd4;" horiz-adv-x="1361" 
d="M799 1896l307 -344h-332l-94 107l-90 -107h-346l315 344h240zM80 477v496q0 235 177 366q178 131 423 131q244 0 423 -131t179 -366v-496q0 -236 -178 -366q-179 -131 -422 -131q-244 0 -423 131t-179 366zM446 973v-496q0 -76 70 -117t166 -41q95 0 164 42t69 116v496
q0 80 -70 122q-71 42 -169 42q-91 0 -161 -44q-69 -43 -69 -120z" />
    <glyph glyph-name="Otilde" unicode="&#xd5;" horiz-adv-x="1361" 
d="M471 1530l-178 100q47 248 260 242q36 0 88 -23q42 -18 85 -41q35 -18 70 -8t58 64l186 -107q-28 -113 -83 -174q-53 -59 -130 -57q-52 0 -111 22q-72 27 -99 40q-36 18 -77 7t-69 -65zM80 477v496q0 235 177 366q178 131 423 131q244 0 423 -131t179 -366v-496
q0 -236 -178 -366q-179 -131 -422 -131q-244 0 -423 131t-179 366zM446 973v-496q0 -76 70 -117t166 -41q95 0 164 42t69 116v496q0 80 -70 122q-71 42 -169 42q-91 0 -161 -44q-69 -43 -69 -120z" />
    <glyph glyph-name="Odieresis" unicode="&#xd6;" horiz-adv-x="1361" 
d="M260 1712q0 74 50 124t122 50t122 -50t50 -124q0 -71 -50 -121q-49 -49 -122 -49t-122 49q-50 50 -50 121zM754 1712q0 75 49 124q50 50 123 50q74 0 124 -50t50 -124q0 -71 -50 -121q-49 -49 -124 -49q-74 0 -123 49t-49 121zM80 477v496q0 235 177 366q178 131 423 131
q244 0 423 -131t179 -366v-496q0 -236 -178 -366q-179 -131 -422 -131q-244 0 -423 131t-179 366zM446 973v-496q0 -76 70 -117t166 -41q95 0 164 42t69 116v496q0 80 -70 122q-71 42 -169 42q-91 0 -161 -44q-69 -43 -69 -120z" />
    <glyph glyph-name="multiply" unicode="&#xd7;" horiz-adv-x="1097" 
d="M549 844l250 250l243 -250l-243 -244l243 -246l-245 -245l-246 245q-70 -70 -128 -127q-69 -68 -124 -125l-240 248l246 246l-254 256l246 244z" />
    <glyph glyph-name="Oslash" unicode="&#xd8;" horiz-adv-x="1361" 
d="M1176 1548l-80 -202q186 -140 186 -373v-496q0 -236 -178 -366q-179 -131 -422 -131q-51 0 -96 6l-80 -197l-324 115l86 200q-188 136 -188 373v496q0 235 177 366q178 131 423 131q50 0 100 -6l74 191zM915 477v496q0 80 -70 122q-71 42 -169 42q-91 0 -161 -44
q-69 -43 -69 -120v-496q0 -76 70 -117t166 -41q95 0 164 42t69 116z" />
    <glyph glyph-name="Ugrave" unicode="&#xd9;" horiz-adv-x="1366" 
d="M895 1548h-317l-269 340h381zM477 1450v-965q0 -65 43 -111t104 -57q60 -10 121 0q61 11 105 57q43 46 43 111v965h371v-965q0 -111 -40 -201q-40 -91 -108 -151q-66 -58 -154 -101q-88 -42 -183 -50t-191 0q-96 7 -184 50q-89 43 -153 101q-68 62 -106 151
q-39 92 -39 201v965h371z" />
    <glyph glyph-name="Uacute" unicode="&#xda;" horiz-adv-x="1366" 
d="M1061 1888l-268 -340h-318l205 340h381zM477 1450v-965q0 -65 43 -111t104 -57q60 -10 121 0q61 11 105 57q43 46 43 111v965h371v-965q0 -111 -40 -201q-40 -91 -108 -151q-66 -58 -154 -101q-88 -42 -183 -50t-191 0q-96 7 -184 50q-89 43 -153 101q-68 62 -106 151
q-39 92 -39 201v965h371z" />
    <glyph glyph-name="Ucircumflex" unicode="&#xdb;" horiz-adv-x="1366" 
d="M805 1892l307 -344h-332l-94 107l-90 -107h-346l315 344h240zM477 1450v-965q0 -65 43 -111t104 -57q60 -10 121 0q61 11 105 57q43 46 43 111v965h371v-965q0 -111 -40 -201q-40 -91 -108 -151q-66 -58 -154 -101q-88 -42 -183 -50t-191 0q-96 7 -184 50
q-89 43 -153 101q-68 62 -106 151q-39 92 -39 201v965h371z" />
    <glyph glyph-name="Udieresis" unicode="&#xdc;" horiz-adv-x="1366" 
d="M266 1708q0 74 50 124t122 50t122 -50t50 -124q0 -71 -50 -121q-49 -49 -122 -49t-122 49q-50 50 -50 121zM760 1708q0 75 49 124q50 50 123 50q74 0 124 -50t50 -124q0 -71 -50 -121q-49 -49 -124 -49q-74 0 -123 49t-49 121zM477 1450v-965q0 -65 43 -111t104 -57
q60 -10 121 0q61 11 105 57q43 46 43 111v965h371v-965q0 -111 -40 -201q-40 -91 -108 -151q-66 -58 -154 -101q-88 -42 -183 -50t-191 0q-96 7 -184 50q-89 43 -153 101q-68 62 -106 151q-39 92 -39 201v965h371z" />
    <glyph glyph-name="Yacute" unicode="&#xdd;" horiz-adv-x="1341" 
d="M1038 1888l-268 -340h-317l204 340h381zM854 0h-367v571l-505 879h426l262 -532l262 532h430l-508 -879v-571z" />
    <glyph glyph-name="Thorn" unicode="&#xde;" horiz-adv-x="1138" 
d="M485 1233h21q293 0 445 -124q153 -125 153 -368q0 -135 -52 -233q-52 -99 -144 -150q-90 -50 -195 -74t-228 -24v-258h-370v1462h370v-231zM485 899v-315q172 -21 238 80q51 78 0 155q-67 98 -238 80z" />
    <glyph glyph-name="germandbls" unicode="&#xdf;" horiz-adv-x="1179" 
d="M98 0v1038q-2 204 143 318q144 114 341 114q193 0 330 -110q139 -112 139 -311q0 -205 -152 -306q119 -44 176 -145q57 -102 51 -216q-6 -116 -65 -206q-57 -94 -168 -145t-236 -51q-71 0 -147 18v324q88 -45 164 3t76 130q0 57 -42 90t-106 33h-92v311q129 -27 176 65
q39 74 -6 140q-35 53 -102 53q-56 0 -95 -33t-39 -90v-1024h-346z" />
    <glyph glyph-name="agrave" unicode="&#xe0;" horiz-adv-x="1327" 
d="M872 1548h-317l-268 340h381zM827 1450l519 -1450h-394l-94 291h-387l-90 -291h-393l506 1450h333zM553 616h217l-100 424h-11z" />
    <glyph glyph-name="aacute" unicode="&#xe1;" horiz-adv-x="1327" 
d="M1038 1888l-268 -340h-317l204 340h381zM827 1450l519 -1450h-394l-94 291h-387l-90 -291h-393l506 1450h333zM553 616h217l-100 424h-11z" />
    <glyph glyph-name="acircumflex" unicode="&#xe2;" horiz-adv-x="1327" 
d="M782 1892l308 -344h-332l-94 107l-91 -107h-346l316 344h239zM827 1450l519 -1450h-394l-94 291h-387l-90 -291h-393l506 1450h333zM553 616h217l-100 424h-11z" />
    <glyph glyph-name="atilde" unicode="&#xe3;" horiz-adv-x="1327" 
d="M449 1534l-179 100q47 248 260 242q36 0 88 -23q42 -18 85 -41q35 -18 70 -8t58 64l187 -107q-28 -113 -83 -174q-53 -59 -130 -57q-53 0 -112 22q-67 25 -98 40q-37 18 -78 7q-40 -10 -68 -65zM827 1450l519 -1450h-394l-94 291h-387l-90 -291h-393l506 1450h333z
M553 616h217l-100 424h-11z" />
    <glyph glyph-name="adieresis" unicode="&#xe4;" horiz-adv-x="1327" 
d="M244 1708q0 74 50 124t122 50t122 -50t50 -124q0 -71 -50 -121q-49 -49 -122 -49t-122 49q-50 50 -50 121zM737 1708q0 75 49 124q50 50 123 50q74 0 124 -50t50 -124q0 -71 -50 -121q-49 -49 -124 -49q-74 0 -123 49t-49 121zM827 1450l519 -1450h-394l-94 291h-387
l-90 -291h-393l506 1450h333zM553 616h217l-100 424h-11z" />
    <glyph glyph-name="aring" unicode="&#xe5;" horiz-adv-x="1327" 
d="M952 0l-94 291h-387l-90 -291h-393l491 1409q-82 76 -82 190q0 109 78 188t191 79q109 0 185 -82q77 -83 77 -187q0 -112 -84 -190l502 -1407h-394zM666 1677q-37 0 -57 -23q-21 -24 -21 -59q0 -27 21 -49t57 -22q32 0 52 19q21 19 21 52q0 34 -21 58t-52 24zM670 1040
h-11l-106 -424h217z" />
    <glyph glyph-name="ae" unicode="&#xe6;" horiz-adv-x="1708" 
d="M1626 1090h-502v-191h451v-354h-451v-195h502v-350h-850v393h-221l-141 -393h-441l619 1450h1034v-360zM647 707h148l8 368h-17z" />
    <glyph glyph-name="ccedilla" unicode="&#xe7;" horiz-adv-x="1191" 
d="M854 453l320 -148q-123 -243 -383 -309l-27 -59q78 -21 120 -75q42 -53 37 -118q-4 -61 -36 -124q-29 -58 -100 -100q-68 -40 -154 -40q-173 0 -299 104l65 176q41 -29 95 -50q45 -17 85 -11q38 6 48 43t-34 69q-43 31 -122 37l63 142q-194 30 -323 157
q-129 128 -129 328v500q0 159 85 272q87 116 214 169q129 54 278 54q156 0 292 -77q139 -79 218 -256l-299 -121q-46 85 -150 109q-103 24 -188 -20q-84 -43 -84 -130v-500q0 -63 53 -104t121 -48q69 -8 137 25t97 105z" />
    <glyph glyph-name="egrave" unicode="&#xe8;" 
d="M842 1548h-318l-268 340h381zM485 1106v-225h588v-318h-588v-217h639v-346h-1009v1450h1009v-344h-639z" />
    <glyph glyph-name="eacute" unicode="&#xe9;" 
d="M1008 1888l-269 -340h-317l205 340h381zM485 1106v-225h588v-318h-588v-217h639v-346h-1009v1450h1009v-344h-639z" />
    <glyph glyph-name="ecircumflex" unicode="&#xea;" 
d="M752 1892l307 -344h-332l-94 107l-90 -107h-346l315 344h240zM485 1106v-225h588v-318h-588v-217h639v-346h-1009v1450h1009v-344h-639z" />
    <glyph glyph-name="edieresis" unicode="&#xeb;" 
d="M213 1708q0 74 50 124t122 50t122 -50t50 -124q0 -71 -50 -121q-49 -49 -122 -49t-122 49q-50 50 -50 121zM707 1708q0 75 49 124q50 50 123 50t123 -50q51 -51 51 -124q0 -70 -51 -121q-49 -49 -123 -49t-123 49t-49 121zM485 1106v-225h588v-318h-588v-217h639v-346
h-1009v1450h1009v-344h-639z" />
    <glyph glyph-name="igrave" unicode="&#xec;" horiz-adv-x="595" 
d="M508 1548h-318l-268 340h381zM481 1450v-1450h-366v1450h366z" />
    <glyph glyph-name="iacute" unicode="&#xed;" horiz-adv-x="595" 
d="M674 1888l-268 -340h-318l205 340h381zM481 1450v-1450h-366v1450h366z" />
    <glyph glyph-name="icircumflex" unicode="&#xee;" horiz-adv-x="595" 
d="M418 1892l287 -344h-332l-74 103l-70 -103h-346l295 344h240zM481 1450v-1450h-366v1450h366z" />
    <glyph glyph-name="idieresis" unicode="&#xef;" horiz-adv-x="595" 
d="M-88 1708q0 74 50 124t122 50t122 -50t50 -124q0 -71 -50 -121q-49 -49 -122 -49t-122 49q-50 50 -50 121zM344 1708q0 75 49 124q50 50 123 50q74 0 124 -50t50 -124q0 -71 -50 -121q-49 -49 -124 -49q-74 0 -123 49t-49 121zM481 1450v-1450h-366v1450h366z" />
    <glyph glyph-name="eth" unicode="&#xf0;" horiz-adv-x="1314" 
d="M127 877v573h586q232 0 377 -119q143 -118 143 -360v-494q0 -240 -143 -358q-145 -119 -377 -119h-586v584h-98v293h98zM498 360h215q151 0 151 117v494q0 119 -151 119h-215v-213h170v-293h-170v-224z" />
    <glyph glyph-name="ntilde" unicode="&#xf1;" horiz-adv-x="1384" 
d="M487 1526l-178 100q47 248 260 242q36 0 88 -23q42 -18 85 -41q35 -18 70 -8t58 64l187 -107q-28 -113 -83 -174q-53 -59 -130 -57q-53 0 -112 22q-67 25 -98 40q-37 18 -78 7t-69 -65zM115 0v1450h348l350 -619l123 -290l10 2l-20 125l-21 125v657h365v-1450h-371
l-328 571l-127 291l-10 -2l47 -280v-580h-366z" />
    <glyph glyph-name="ograve" unicode="&#xf2;" horiz-adv-x="1361" 
d="M889 1552h-318l-268 340h381zM80 477v496q0 235 177 366q178 131 423 131q244 0 423 -131t179 -366v-496q0 -236 -178 -366q-179 -131 -422 -131q-244 0 -423 131t-179 366zM446 973v-496q0 -76 70 -117t166 -41q95 0 164 42t69 116v496q0 80 -70 122q-71 42 -169 42
q-91 0 -161 -44q-69 -43 -69 -120z" />
    <glyph glyph-name="oacute" unicode="&#xf3;" horiz-adv-x="1361" 
d="M1055 1892l-269 -340h-317l205 340h381zM80 477v496q0 235 177 366q178 131 423 131q244 0 423 -131t179 -366v-496q0 -236 -178 -366q-179 -131 -422 -131q-244 0 -423 131t-179 366zM446 973v-496q0 -76 70 -117t166 -41q95 0 164 42t69 116v496q0 80 -70 122
q-71 42 -169 42q-91 0 -161 -44q-69 -43 -69 -120z" />
    <glyph glyph-name="ocircumflex" unicode="&#xf4;" horiz-adv-x="1361" 
d="M799 1896l307 -344h-332l-94 107l-90 -107h-346l315 344h240zM80 477v496q0 235 177 366q178 131 423 131q244 0 423 -131t179 -366v-496q0 -236 -178 -366q-179 -131 -422 -131q-244 0 -423 131t-179 366zM446 973v-496q0 -76 70 -117t166 -41q95 0 164 42t69 116v496
q0 80 -70 122q-71 42 -169 42q-91 0 -161 -44q-69 -43 -69 -120z" />
    <glyph glyph-name="otilde" unicode="&#xf5;" horiz-adv-x="1361" 
d="M471 1530l-178 100q47 248 260 242q36 0 88 -23q42 -18 85 -41q35 -18 70 -8t58 64l186 -107q-28 -113 -83 -174q-53 -59 -130 -57q-52 0 -111 22q-72 27 -99 40q-36 18 -77 7t-69 -65zM80 477v496q0 235 177 366q178 131 423 131q244 0 423 -131t179 -366v-496
q0 -236 -178 -366q-179 -131 -422 -131q-244 0 -423 131t-179 366zM446 973v-496q0 -76 70 -117t166 -41q95 0 164 42t69 116v496q0 80 -70 122q-71 42 -169 42q-91 0 -161 -44q-69 -43 -69 -120z" />
    <glyph glyph-name="odieresis" unicode="&#xf6;" horiz-adv-x="1361" 
d="M260 1712q0 74 50 124t122 50t122 -50t50 -124q0 -71 -50 -121q-49 -49 -122 -49t-122 49q-50 50 -50 121zM754 1712q0 75 49 124q50 50 123 50q74 0 124 -50t50 -124q0 -71 -50 -121q-49 -49 -124 -49q-74 0 -123 49t-49 121zM80 477v496q0 235 177 366q178 131 423 131
q244 0 423 -131t179 -366v-496q0 -236 -178 -366q-179 -131 -422 -131q-244 0 -423 131t-179 366zM446 973v-496q0 -76 70 -117t166 -41q95 0 164 42t69 116v496q0 80 -70 122q-71 42 -169 42q-91 0 -161 -44q-69 -43 -69 -120z" />
    <glyph glyph-name="divide" unicode="&#xf7;" horiz-adv-x="1042" 
d="M57 766h930v-311h-930v311zM334 201q0 80 55 132t137 52q83 0 139 -52t56 -132q0 -81 -56 -133q-59 -54 -139 -54t-137 54q-55 52 -55 133zM334 1022q0 80 55 132t137 52q83 0 139 -52t56 -132q0 -81 -56 -133q-58 -53 -139 -53t-137 53q-55 52 -55 133z" />
    <glyph glyph-name="oslash" unicode="&#xf8;" horiz-adv-x="1361" 
d="M1176 1548l-80 -202q186 -140 186 -373v-496q0 -236 -178 -366q-179 -131 -422 -131q-51 0 -96 6l-80 -197l-324 115l86 200q-188 136 -188 373v496q0 235 177 366q178 131 423 131q50 0 100 -6l74 191zM915 477v496q0 80 -70 122q-71 42 -169 42q-91 0 -161 -44
q-69 -43 -69 -120v-496q0 -76 70 -117t166 -41q95 0 164 42t69 116z" />
    <glyph glyph-name="ugrave" unicode="&#xf9;" horiz-adv-x="1366" 
d="M895 1548h-317l-269 340h381zM477 1450v-965q0 -65 43 -111t104 -57q60 -10 121 0q61 11 105 57q43 46 43 111v965h371v-965q0 -111 -40 -201q-40 -91 -108 -151q-66 -58 -154 -101q-88 -42 -183 -50t-191 0q-96 7 -184 50q-89 43 -153 101q-68 62 -106 151
q-39 92 -39 201v965h371z" />
    <glyph glyph-name="uacute" unicode="&#xfa;" horiz-adv-x="1366" 
d="M1061 1888l-268 -340h-318l205 340h381zM477 1450v-965q0 -65 43 -111t104 -57q60 -10 121 0q61 11 105 57q43 46 43 111v965h371v-965q0 -111 -40 -201q-40 -91 -108 -151q-66 -58 -154 -101q-88 -42 -183 -50t-191 0q-96 7 -184 50q-89 43 -153 101q-68 62 -106 151
q-39 92 -39 201v965h371z" />
    <glyph glyph-name="ucircumflex" unicode="&#xfb;" horiz-adv-x="1366" 
d="M805 1892l307 -344h-332l-94 107l-90 -107h-346l315 344h240zM477 1450v-965q0 -65 43 -111t104 -57q60 -10 121 0q61 11 105 57q43 46 43 111v965h371v-965q0 -111 -40 -201q-40 -91 -108 -151q-66 -58 -154 -101q-88 -42 -183 -50t-191 0q-96 7 -184 50
q-89 43 -153 101q-68 62 -106 151q-39 92 -39 201v965h371z" />
    <glyph glyph-name="udieresis" unicode="&#xfc;" horiz-adv-x="1366" 
d="M266 1708q0 74 50 124t122 50t122 -50t50 -124q0 -71 -50 -121q-49 -49 -122 -49t-122 49q-50 50 -50 121zM760 1708q0 75 49 124q50 50 123 50q74 0 124 -50t50 -124q0 -71 -50 -121q-49 -49 -124 -49q-74 0 -123 49t-49 121zM477 1450v-965q0 -65 43 -111t104 -57
q60 -10 121 0q61 11 105 57q43 46 43 111v965h371v-965q0 -111 -40 -201q-40 -91 -108 -151q-66 -58 -154 -101q-88 -42 -183 -50t-191 0q-96 7 -184 50q-89 43 -153 101q-68 62 -106 151q-39 92 -39 201v965h371z" />
    <glyph glyph-name="yacute" unicode="&#xfd;" horiz-adv-x="1341" 
d="M1038 1888l-268 -340h-317l204 340h381zM854 0h-367v571l-505 879h426l262 -532l262 532h430l-508 -879v-571z" />
    <glyph glyph-name="thorn" unicode="&#xfe;" horiz-adv-x="1138" 
d="M485 1233h21q293 0 445 -124q153 -125 153 -368q0 -135 -52 -233q-52 -99 -144 -150q-90 -50 -195 -74t-228 -24v-258h-370v1462h370v-231zM485 899v-315q172 -21 238 80q51 78 0 155q-67 98 -238 80z" />
    <glyph glyph-name="ydieresis" unicode="&#xff;" horiz-adv-x="1341" 
d="M244 1708q0 74 50 124t122 50t122 -50t50 -124q0 -71 -50 -121q-49 -49 -122 -49t-122 49q-50 50 -50 121zM737 1708q0 75 49 124q50 50 123 50q74 0 124 -50t50 -124q0 -71 -50 -121q-49 -49 -124 -49q-74 0 -123 49t-49 121zM854 0h-367v571l-505 879h426l262 -532
l262 532h430l-508 -879v-571z" />
    <glyph glyph-name="Amacron" unicode="&#x100;" horiz-adv-x="1327" 
d="M356 1552v275h609v-275h-609zM827 1450l519 -1450h-394l-94 291h-387l-90 -291h-393l506 1450h333zM553 616h217l-100 424h-11z" />
    <glyph glyph-name="amacron" unicode="&#x101;" horiz-adv-x="1327" 
d="M356 1552v275h609v-275h-609zM827 1450l519 -1450h-394l-94 291h-387l-90 -291h-393l506 1450h333zM553 616h217l-100 424h-11z" />
    <glyph glyph-name="Abreve" unicode="&#x102;" horiz-adv-x="1327" 
d="M741 1888h277q0 -111 -53 -196q-51 -82 -134 -121q-78 -37 -172 -37t-172 37q-81 38 -133 121q-53 85 -53 196h281q0 -48 40 -69q39 -20 79 0q40 21 40 69zM827 1450l519 -1450h-394l-94 291h-387l-90 -291h-393l506 1450h333zM553 616h217l-100 424h-11z" />
    <glyph glyph-name="abreve" unicode="&#x103;" horiz-adv-x="1327" 
d="M741 1888h277q0 -111 -53 -196q-51 -82 -134 -121q-78 -37 -172 -37t-172 37q-81 38 -133 121q-53 85 -53 196h281q0 -48 40 -69q39 -20 79 0q40 21 40 69zM827 1450l519 -1450h-394l-94 291h-387l-90 -291h-393l506 1450h333zM553 616h217l-100 424h-11z" />
    <glyph glyph-name="Aogonek" unicode="&#x104;" horiz-adv-x="1327" 
d="M1382 -199l58 -219q-100 -82 -236 -82q-211 0 -256 152q-45 151 115 348h-111l-94 291h-387l-90 -291h-393l506 1450h333l519 -1450q-115 -106 -105 -182q6 -47 59 -45q38 0 82 28zM553 616h217l-100 424h-11z" />
    <glyph glyph-name="aogonek" unicode="&#x105;" horiz-adv-x="1327" 
d="M1382 -199l58 -219q-100 -82 -236 -82q-211 0 -256 152q-45 151 115 348h-111l-94 291h-387l-90 -291h-393l506 1450h333l519 -1450q-115 -106 -105 -182q6 -47 59 -45q38 0 82 28zM553 616h217l-100 424h-11z" />
    <glyph glyph-name="Cacute" unicode="&#x106;" horiz-adv-x="1191" 
d="M1032 1888l-268 -340h-318l205 340h381zM854 453l320 -148q-56 -110 -149 -188t-184 -107q-93 -30 -190 -30q-231 0 -401 131t-170 364v500q0 159 85 272q87 116 214 169q129 54 278 54q156 0 292 -77q139 -79 218 -256l-299 -121q-46 85 -150 109q-103 24 -188 -20
q-84 -43 -84 -130v-500q0 -63 53 -104t121 -48q69 -8 137 25t97 105z" />
    <glyph glyph-name="cacute" unicode="&#x107;" horiz-adv-x="1191" 
d="M1032 1888l-268 -340h-318l205 340h381zM854 453l320 -148q-56 -110 -149 -188t-184 -107q-93 -30 -190 -30q-231 0 -401 131t-170 364v500q0 159 85 272q87 116 214 169q129 54 278 54q156 0 292 -77q139 -79 218 -256l-299 -121q-46 85 -150 109q-103 24 -188 -20
q-84 -43 -84 -130v-500q0 -63 53 -104t121 -48q69 -8 137 25t97 105z" />
    <glyph glyph-name="Cdotaccent" unicode="&#x10a;" horiz-adv-x="1191" 
d="M455 1743q0 84 58 141q60 58 144 58q85 0 143 -58q56 -56 56 -141q0 -88 -56 -144q-57 -57 -143 -57q-85 0 -144 59q-58 58 -58 142zM854 453l320 -148q-56 -110 -149 -188t-184 -107q-93 -30 -190 -30q-231 0 -401 131t-170 364v500q0 159 85 272q87 116 214 169
q129 54 278 54q156 0 292 -77q139 -79 218 -256l-299 -121q-46 85 -150 109q-103 24 -188 -20q-84 -43 -84 -130v-500q0 -63 53 -104t121 -48q69 -8 137 25t97 105z" />
    <glyph glyph-name="cdotaccent" unicode="&#x10b;" horiz-adv-x="1191" 
d="M455 1743q0 84 58 141q60 58 144 58q85 0 143 -58q56 -56 56 -141q0 -88 -56 -144q-57 -57 -143 -57q-85 0 -144 59q-58 58 -58 142zM854 453l320 -148q-56 -110 -149 -188t-184 -107q-93 -30 -190 -30q-231 0 -401 131t-170 364v500q0 159 85 272q87 116 214 169
q129 54 278 54q156 0 292 -77q139 -79 218 -256l-299 -121q-46 85 -150 109q-103 24 -188 -20q-84 -43 -84 -130v-500q0 -63 53 -104t121 -48q69 -8 137 25t97 105z" />
    <glyph glyph-name="Ccaron" unicode="&#x10c;" horiz-adv-x="1191" 
d="M229 1892h344l84 -106l95 106h342l-308 -344h-249zM854 453l320 -148q-56 -110 -149 -188t-184 -107q-93 -30 -190 -30q-231 0 -401 131t-170 364v500q0 159 85 272q87 116 214 169q129 54 278 54q156 0 292 -77q139 -79 218 -256l-299 -121q-46 85 -150 109
q-103 24 -188 -20q-84 -43 -84 -130v-500q0 -63 53 -104t121 -48q69 -8 137 25t97 105z" />
    <glyph glyph-name="ccaron" unicode="&#x10d;" horiz-adv-x="1191" 
d="M229 1892h344l84 -106l95 106h342l-308 -344h-249zM854 453l320 -148q-56 -110 -149 -188t-184 -107q-93 -30 -190 -30q-231 0 -401 131t-170 364v500q0 159 85 272q87 116 214 169q129 54 278 54q156 0 292 -77q139 -79 218 -256l-299 -121q-46 85 -150 109
q-103 24 -188 -20q-84 -43 -84 -130v-500q0 -63 53 -104t121 -48q69 -8 137 25t97 105z" />
    <glyph glyph-name="Dcaron" unicode="&#x10e;" horiz-adv-x="1302" 
d="M164 1892h344l84 -106l94 106h342l-307 -344h-250zM115 1450h542q153 0 276 -49t206 -162q82 -112 82 -274v-488q0 -236 -163 -357q-164 -122 -401 -120h-542v1450zM483 344h187q90 0 136 42t46 116v452q0 73 -46 113q-47 41 -136 41h-187v-764z" />
    <glyph glyph-name="dcaron" unicode="&#x10f;" horiz-adv-x="1302" 
d="M164 1892h344l84 -106l94 106h342l-307 -344h-250zM115 1450h542q153 0 276 -49t206 -162q82 -112 82 -274v-488q0 -236 -163 -357q-164 -122 -401 -120h-542v1450zM483 344h187q90 0 136 42t46 116v452q0 73 -46 113q-47 41 -136 41h-187v-764z" />
    <glyph glyph-name="Dcroat" unicode="&#x110;" horiz-adv-x="1314" 
d="M127 877v573h586q232 0 377 -119q143 -118 143 -360v-494q0 -240 -143 -358q-145 -119 -377 -119h-586v584h-98v293h98zM498 360h215q151 0 151 117v494q0 119 -151 119h-215v-213h170v-293h-170v-224z" />
    <glyph glyph-name="dcroat" unicode="&#x111;" horiz-adv-x="1314" 
d="M127 877v573h586q232 0 377 -119q143 -118 143 -360v-494q0 -240 -143 -358q-145 -119 -377 -119h-586v584h-98v293h98zM498 360h215q151 0 151 117v494q0 119 -151 119h-215v-213h170v-293h-170v-224z" />
    <glyph glyph-name="Emacron" unicode="&#x112;" 
d="M326 1552v275h608v-275h-608zM485 1106v-225h588v-318h-588v-217h639v-346h-1009v1450h1009v-344h-639z" />
    <glyph glyph-name="emacron" unicode="&#x113;" 
d="M326 1552v275h608v-275h-608zM485 1106v-225h588v-318h-588v-217h639v-346h-1009v1450h1009v-344h-639z" />
    <glyph glyph-name="Edotaccent" unicode="&#x116;" 
d="M430 1743q0 84 58 141q60 58 145 58q84 0 142 -58q56 -56 56 -141q0 -88 -56 -144q-57 -57 -142 -57q-86 0 -145 59q-58 58 -58 142zM485 1106v-225h588v-318h-588v-217h639v-346h-1009v1450h1009v-344h-639z" />
    <glyph glyph-name="edotaccent" unicode="&#x117;" 
d="M430 1743q0 84 58 141q60 58 145 58q84 0 142 -58q56 -56 56 -141q0 -88 -56 -144q-57 -57 -142 -57q-86 0 -145 59q-58 58 -58 142zM485 1106v-225h588v-318h-588v-217h639v-346h-1009v1450h1009v-344h-639z" />
    <glyph glyph-name="Eogonek" unicode="&#x118;" 
d="M1163 -199l58 -219q-100 -82 -236 -82q-211 0 -256 152q-45 151 115 348h-729v1450h1009v-344h-639v-225h588v-318h-588v-217h639v-346q-117 -111 -102 -186q10 -42 59 -41q38 0 82 28z" />
    <glyph glyph-name="eogonek" unicode="&#x119;" 
d="M1163 -199l58 -219q-100 -82 -236 -82q-211 0 -256 152q-45 151 115 348h-729v1450h1009v-344h-639v-225h588v-318h-588v-217h639v-346q-117 -111 -102 -186q10 -42 59 -41q38 0 82 28z" />
    <glyph glyph-name="Ecaron" unicode="&#x11a;" 
d="M205 1892h344l84 -106l94 106h342l-307 -344h-250zM485 1106v-225h588v-318h-588v-217h639v-346h-1009v1450h1009v-344h-639z" />
    <glyph glyph-name="ecaron" unicode="&#x11b;" 
d="M205 1892h344l84 -106l94 106h342l-307 -344h-250zM485 1106v-225h588v-318h-588v-217h639v-346h-1009v1450h1009v-344h-639z" />
    <glyph glyph-name="Gbreve" unicode="&#x11e;" horiz-adv-x="1277" 
d="M731 1888h277q0 -110 -54 -196q-52 -83 -133 -121q-78 -37 -172 -37t-172 37q-81 38 -133 121q-53 85 -53 196h280q0 -48 40 -69t80 0t40 69zM1157 1161l-307 -141q-29 70 -96 101q-68 32 -136 24q-66 -7 -119 -53q-53 -45 -53 -113v-498q0 -79 67 -126q65 -46 145 -46
q81 0 146 46q66 47 66 126v54h-231v307h584v-361q0 -237 -167 -369q-166 -132 -403 -132q-234 0 -403 133q-170 134 -170 368v498q0 230 170 361q169 130 403 130q101 0 193 -27q91 -27 178 -100q88 -74 133 -182z" />
    <glyph glyph-name="gbreve" unicode="&#x11f;" horiz-adv-x="1277" 
d="M731 1888h277q0 -110 -54 -196q-52 -83 -133 -121q-78 -37 -172 -37t-172 37q-81 38 -133 121q-53 85 -53 196h280q0 -48 40 -69t80 0t40 69zM1157 1161l-307 -141q-29 70 -96 101q-68 32 -136 24q-66 -7 -119 -53q-53 -45 -53 -113v-498q0 -79 67 -126q65 -46 145 -46
q81 0 146 46q66 47 66 126v54h-231v307h584v-361q0 -237 -167 -369q-166 -132 -403 -132q-234 0 -403 133q-170 134 -170 368v498q0 230 170 361q169 130 403 130q101 0 193 -27q91 -27 178 -100q88 -74 133 -182z" />
    <glyph glyph-name="Gdotaccent" unicode="&#x120;" horiz-adv-x="1277" 
d="M451 1743q0 84 58 141q60 58 144 58q85 0 143 -58q56 -56 56 -141q0 -88 -56 -144q-57 -57 -143 -57q-85 0 -144 59q-58 58 -58 142zM1157 1161l-307 -141q-29 70 -96 101q-68 32 -136 24q-66 -7 -119 -53q-53 -45 -53 -113v-498q0 -79 67 -126q65 -46 145 -46
q81 0 146 46q66 47 66 126v54h-231v307h584v-361q0 -237 -167 -369q-166 -132 -403 -132q-234 0 -403 133q-170 134 -170 368v498q0 230 170 361q169 130 403 130q101 0 193 -27q91 -27 178 -100q88 -74 133 -182z" />
    <glyph glyph-name="gdotaccent" unicode="&#x121;" horiz-adv-x="1277" 
d="M451 1743q0 84 58 141q60 58 144 58q85 0 143 -58q56 -56 56 -141q0 -88 -56 -144q-57 -57 -143 -57q-85 0 -144 59q-58 58 -58 142zM1157 1161l-307 -141q-29 70 -96 101q-68 32 -136 24q-66 -7 -119 -53q-53 -45 -53 -113v-498q0 -79 67 -126q65 -46 145 -46
q81 0 146 46q66 47 66 126v54h-231v307h584v-361q0 -237 -167 -369q-166 -132 -403 -132q-234 0 -403 133q-170 134 -170 368v498q0 230 170 361q169 130 403 130q101 0 193 -27q91 -27 178 -100q88 -74 133 -182z" />
    <glyph glyph-name="Gcommaaccent" unicode="&#x122;" horiz-adv-x="1277" 
d="M1157 1161l-307 -141q-29 70 -96 101q-68 32 -136 24q-66 -7 -119 -53q-53 -45 -53 -113v-498q0 -79 67 -126q65 -46 145 -46q81 0 146 46q66 47 66 126v54h-231v307h584v-361q0 -237 -167 -369q-166 -132 -403 -132q-234 0 -403 133q-170 134 -170 368v498
q0 230 170 361q169 130 403 130q101 0 193 -27q91 -27 178 -100q88 -74 133 -182zM877 -94l-154 -418h-334l125 418h363z" />
    <glyph glyph-name="gcommaaccent" unicode="&#x123;" horiz-adv-x="1277" 
d="M1157 1161l-307 -141q-29 70 -96 101q-68 32 -136 24q-66 -7 -119 -53q-53 -45 -53 -113v-498q0 -79 67 -126q65 -46 145 -46q81 0 146 46q66 47 66 126v54h-231v307h584v-361q0 -237 -167 -369q-166 -132 -403 -132q-234 0 -403 133q-170 134 -170 368v498
q0 230 170 361q169 130 403 130q101 0 193 -27q91 -27 178 -100q88 -74 133 -182zM877 -94l-154 -418h-334l125 418h363z" />
    <glyph glyph-name="Hbar" unicode="&#x126;" horiz-adv-x="1427" 
d="M1292 1061v-1061h-368v547h-418v-547h-369v1061h-121v213h121v176h369v-176h418v176h368v-176h119v-213h-119zM506 1061v-160h418v160h-418z" />
    <glyph glyph-name="hbar" unicode="&#x127;" horiz-adv-x="1427" 
d="M1292 1061v-1061h-368v547h-418v-547h-369v1061h-121v213h121v176h369v-176h418v176h368v-176h119v-213h-119zM506 1061v-160h418v160h-418z" />
    <glyph glyph-name="Imacron" unicode="&#x12a;" horiz-adv-x="595" 
d="M-8 1552v275h608v-275h-608zM481 1450v-1450h-366v1450h366z" />
    <glyph glyph-name="imacron" unicode="&#x12b;" horiz-adv-x="595" 
d="M-8 1552v275h608v-275h-608zM481 1450v-1450h-366v1450h366z" />
    <glyph glyph-name="Iogonek" unicode="&#x12e;" horiz-adv-x="595" 
d="M516 -199l57 -219q-100 -82 -235 -82q-211 0 -256 152q-45 151 115 348h-82v1450h366v-1450q-103 -89 -104 -170q0 -30 14 -44t43 -13q38 0 82 28z" />
    <glyph glyph-name="iogonek" unicode="&#x12f;" horiz-adv-x="595" 
d="M516 -199l57 -219q-100 -82 -235 -82q-211 0 -256 152q-45 151 115 348h-82v1450h366v-1450q-103 -89 -104 -170q0 -30 14 -44t43 -13q38 0 82 28z" />
    <glyph glyph-name="Idotaccent" unicode="&#x130;" horiz-adv-x="595" 
d="M96 1743q0 84 59 141q60 58 144 58t142 -58q57 -57 57 -141q0 -87 -57 -144t-142 -57t-144 59t-59 142zM481 1450v-1450h-366v1450h366z" />
    <glyph glyph-name="dotlessi" unicode="&#x131;" horiz-adv-x="595" 
d="M481 1450v-1450h-366v1450h366z" />
    <glyph glyph-name="IJ" unicode="&#x132;" horiz-adv-x="1798" 
d="M481 1450v-1450h-366v1450h366zM602 426l346 72q15 -83 74 -123q61 -41 133 -41q71 0 123 39q53 39 53 100v645h-330v332h693v-977q0 -226 -166 -359q-167 -134 -387 -134q-204 0 -357 114t-182 332z" />
    <glyph glyph-name="ij" unicode="&#x133;" horiz-adv-x="1798" 
d="M481 1450v-1450h-366v1450h366zM602 426l346 72q15 -83 74 -123q61 -41 133 -41q71 0 123 39q53 39 53 100v645h-330v332h693v-977q0 -226 -166 -359q-167 -134 -387 -134q-204 0 -357 114t-182 332z" />
    <glyph glyph-name="Kcommaaccent" unicode="&#x136;" horiz-adv-x="1310" 
d="M483 913l394 537h456l-573 -700l571 -750h-465l-370 518l-13 -16v-502h-368v1450h368v-537zM895 -102l-154 -418h-333l124 418h363z" />
    <glyph glyph-name="kcommaaccent" unicode="&#x137;" horiz-adv-x="1310" 
d="M483 913l394 537h456l-573 -700l571 -750h-465l-370 518l-13 -16v-502h-368v1450h368v-537zM895 -102l-154 -418h-333l124 418h363z" />
    <glyph glyph-name="Lacute" unicode="&#x139;" horiz-adv-x="1103" 
d="M678 1888l-268 -340h-318l205 340h381zM115 0v1450h368v-1088h590v-362h-958z" />
    <glyph glyph-name="lacute" unicode="&#x13a;" horiz-adv-x="1103" 
d="M678 1888l-268 -340h-318l205 340h381zM115 0v1450h368v-1088h590v-362h-958z" />
    <glyph glyph-name="Lcommaaccent" unicode="&#x13b;" horiz-adv-x="1103" 
d="M115 0v1450h368v-1088h590v-362h-958zM831 -102l-153 -418h-334l125 418h362z" />
    <glyph glyph-name="lcommaaccent" unicode="&#x13c;" horiz-adv-x="1103" 
d="M115 0v1450h368v-1088h590v-362h-958zM831 -102l-153 -418h-334l125 418h362z" />
    <glyph glyph-name="Lcaron" unicode="&#x13d;" horiz-adv-x="1124" 
d="M115 0v1450h368v-1088h590v-362h-958zM1114 1442l-153 -418h-314l125 418h342z" />
    <glyph glyph-name="lcaron" unicode="&#x13e;" horiz-adv-x="1124" 
d="M115 0v1450h368v-1088h590v-362h-958zM1114 1442l-153 -418h-314l125 418h342z" />
    <glyph glyph-name="Ldot" unicode="&#x13f;" horiz-adv-x="1122" 
d="M115 0v1450h368v-1088h590v-362h-958zM600 778q0 86 56 142q57 57 143 57q81 0 137 -57q55 -56 55 -142q0 -82 -55 -137t-137 -55q-87 0 -143 55t-56 137z" />
    <glyph glyph-name="ldot" unicode="&#x140;" horiz-adv-x="1122" 
d="M115 0v1450h368v-1088h590v-362h-958zM600 778q0 86 56 142q57 57 143 57q81 0 137 -57q55 -56 55 -142q0 -82 -55 -137t-137 -55q-87 0 -143 55t-56 137z" />
    <glyph glyph-name="Lslash" unicode="&#x141;" horiz-adv-x="1167" 
d="M1110 373v-373h-932v526l-84 -34l-92 231l176 74v653h371v-496l264 109l96 -229l-360 -150v-311h561z" />
    <glyph glyph-name="lslash" unicode="&#x142;" horiz-adv-x="1167" 
d="M1110 373v-373h-932v526l-84 -34l-92 231l176 74v653h371v-496l264 109l96 -229l-360 -150v-311h561z" />
    <glyph glyph-name="Nacute" unicode="&#x143;" horiz-adv-x="1384" 
d="M1071 1888l-268 -340h-318l205 340h381zM115 0v1450h348l350 -619l123 -290l10 2l-20 125l-21 125v657h365v-1450h-371l-328 571l-127 291l-10 -2l47 -280v-580h-366z" />
    <glyph glyph-name="nacute" unicode="&#x144;" horiz-adv-x="1384" 
d="M1071 1888l-268 -340h-318l205 340h381zM115 0v1450h348l350 -619l123 -290l10 2l-20 125l-21 125v657h365v-1450h-371l-328 571l-127 291l-10 -2l47 -280v-580h-366z" />
    <glyph glyph-name="Ncommaaccent" unicode="&#x145;" horiz-adv-x="1384" 
d="M115 0v1450h348l350 -619l123 -290l10 2l-20 125l-21 125v657h365v-1450h-371l-328 571l-127 291l-10 -2l47 -280v-580h-366zM932 -102l-154 -418h-334l125 418h363z" />
    <glyph glyph-name="ncommaaccent" unicode="&#x146;" horiz-adv-x="1384" 
d="M115 0v1450h348l350 -619l123 -290l10 2l-20 125l-21 125v657h365v-1450h-371l-328 571l-127 291l-10 -2l47 -280v-580h-366zM932 -102l-154 -418h-334l125 418h363z" />
    <glyph glyph-name="Ncaron" unicode="&#x147;" horiz-adv-x="1384" 
d="M268 1892h344l84 -106l95 106h342l-308 -344h-250zM115 0v1450h348l350 -619l123 -290l10 2l-20 125l-21 125v657h365v-1450h-371l-328 571l-127 291l-10 -2l47 -280v-580h-366z" />
    <glyph glyph-name="ncaron" unicode="&#x148;" horiz-adv-x="1384" 
d="M268 1892h344l84 -106l95 106h342l-308 -344h-250zM115 0v1450h348l350 -619l123 -290l10 2l-20 125l-21 125v657h365v-1450h-371l-328 571l-127 291l-10 -2l47 -280v-580h-366z" />
    <glyph glyph-name="Eng" unicode="&#x14a;" horiz-adv-x="1384" 
d="M1270 1450v-1460q0 -232 -144 -344q-145 -113 -358 -58v301q72 -17 114 18t42 87v20l-353 557l-127 291l-8 -2l45 -280v-580h-366v1450h348l350 -602l123 -291l6 2l-18 125l-19 125v641h365z" />
    <glyph glyph-name="eng" unicode="&#x14b;" horiz-adv-x="1384" 
d="M1270 1450v-1460q0 -232 -144 -344q-145 -113 -358 -58v301q72 -17 114 18t42 87v20l-353 557l-127 291l-8 -2l45 -280v-580h-366v1450h348l350 -602l123 -291l6 2l-18 125l-19 125v641h365z" />
    <glyph glyph-name="Omacron" unicode="&#x14c;" horiz-adv-x="1361" 
d="M373 1556v275h608v-275h-608zM80 477v496q0 235 177 366q178 131 423 131q244 0 423 -131t179 -366v-496q0 -236 -178 -366q-179 -131 -422 -131q-244 0 -423 131t-179 366zM446 973v-496q0 -76 70 -117t166 -41q95 0 164 42t69 116v496q0 80 -70 122q-71 42 -169 42
q-91 0 -161 -44q-69 -43 -69 -120z" />
    <glyph glyph-name="omacron" unicode="&#x14d;" horiz-adv-x="1361" 
d="M373 1556v275h608v-275h-608zM80 477v496q0 235 177 366q178 131 423 131q244 0 423 -131t179 -366v-496q0 -236 -178 -366q-179 -131 -422 -131q-244 0 -423 131t-179 366zM446 973v-496q0 -76 70 -117t166 -41q95 0 164 42t69 116v496q0 80 -70 122q-71 42 -169 42
q-91 0 -161 -44q-69 -43 -69 -120z" />
    <glyph glyph-name="Ohungarumlaut" unicode="&#x150;" horiz-adv-x="1361" 
d="M799 1876l-228 -324h-288l153 324h363zM1274 1876l-240 -324h-286l151 324h375zM80 477v496q0 235 177 366q178 131 423 131q244 0 423 -131t179 -366v-496q0 -236 -178 -366q-179 -131 -422 -131q-244 0 -423 131t-179 366zM446 973v-496q0 -76 70 -117t166 -41
q95 0 164 42t69 116v496q0 80 -70 122q-71 42 -169 42q-91 0 -161 -44q-69 -43 -69 -120z" />
    <glyph glyph-name="ohungarumlaut" unicode="&#x151;" horiz-adv-x="1361" 
d="M799 1876l-228 -324h-288l153 324h363zM1274 1876l-240 -324h-286l151 324h375zM80 477v496q0 235 177 366q178 131 423 131q244 0 423 -131t179 -366v-496q0 -236 -178 -366q-179 -131 -422 -131q-244 0 -423 131t-179 366zM446 973v-496q0 -76 70 -117t166 -41
q95 0 164 42t69 116v496q0 80 -70 122q-71 42 -169 42q-91 0 -161 -44q-69 -43 -69 -120z" />
    <glyph glyph-name="OE" unicode="&#x152;" horiz-adv-x="1662" 
d="M1096 1104v-215h434v-334h-434v-211h487v-344h-801v66q-109 -86 -250 -86q-215 0 -330 124q-116 125 -116 330v570q0 205 128 336q127 130 306 130q142 0 262 -71v51h801v-346h-487zM782 350v754q-90 77 -209 42q-118 -34 -118 -145v-534q0 -88 51 -130t125 -42
q106 0 151 55z" />
    <glyph glyph-name="oe" unicode="&#x153;" horiz-adv-x="1662" 
d="M1096 1104v-215h434v-334h-434v-211h487v-344h-801v66q-109 -86 -250 -86q-215 0 -330 124q-116 125 -116 330v570q0 205 128 336q127 130 306 130q142 0 262 -71v51h801v-346h-487zM782 350v754q-90 77 -209 42q-118 -34 -118 -145v-534q0 -88 51 -130t125 -42
q106 0 151 55z" />
    <glyph glyph-name="Racute" unicode="&#x154;" horiz-adv-x="1323" 
d="M1004 1888l-269 -340h-317l205 340h381zM887 0l-336 461h-66v-461h-370v1450h579q239 0 386 -117t153 -360q0 -385 -285 -475l395 -498h-456zM485 776h215q109 0 154 83t0 166t-154 83h-215v-332z" />
    <glyph glyph-name="racute" unicode="&#x155;" horiz-adv-x="1323" 
d="M1004 1888l-269 -340h-317l205 340h381zM887 0l-336 461h-66v-461h-370v1450h579q239 0 386 -117t153 -360q0 -385 -285 -475l395 -498h-456zM485 776h215q109 0 154 83t0 166t-154 83h-215v-332z" />
    <glyph glyph-name="Rcommaaccent" unicode="&#x156;" horiz-adv-x="1323" 
d="M887 0l-336 461h-66v-461h-370v1450h579q239 0 386 -117t153 -360q0 -385 -285 -475l395 -498h-456zM485 776h215q109 0 154 83t0 166t-154 83h-215v-332zM907 -102l-153 -418h-334l125 418h362z" />
    <glyph glyph-name="rcommaaccent" unicode="&#x157;" horiz-adv-x="1323" 
d="M887 0l-336 461h-66v-461h-370v1450h579q239 0 386 -117t153 -360q0 -385 -285 -475l395 -498h-456zM485 776h215q109 0 154 83t0 166t-154 83h-215v-332zM907 -102l-153 -418h-334l125 418h362z" />
    <glyph glyph-name="Rcaron" unicode="&#x158;" horiz-adv-x="1323" 
d="M201 1892h344l84 -106l94 106h342l-307 -344h-250zM887 0l-336 461h-66v-461h-370v1450h579q239 0 386 -117t153 -360q0 -385 -285 -475l395 -498h-456zM485 776h215q109 0 154 83t0 166t-154 83h-215v-332z" />
    <glyph glyph-name="rcaron" unicode="&#x159;" horiz-adv-x="1323" 
d="M201 1892h344l84 -106l94 106h342l-307 -344h-250zM887 0l-336 461h-66v-461h-370v1450h579q239 0 386 -117t153 -360q0 -385 -285 -475l395 -498h-456zM485 776h215q109 0 154 83t0 166t-154 83h-215v-332z" />
    <glyph glyph-name="Sacute" unicode="&#x15a;" horiz-adv-x="1155" 
d="M956 1888l-268 -340h-317l204 340h381zM45 242l231 217q41 -51 104 -86t124 -45q58 -10 117 -5q54 4 92 33q37 28 39 74q1 57 -72 94q-69 35 -176 51q-191 30 -319 149t-128 312q0 203 155 319q154 115 370 115q304 0 495 -231l-239 -184q-74 78 -172 105
q-100 27 -171 -4q-74 -32 -75 -114q6 -94 192 -135q81 -15 154 -35q62 -17 137 -56q71 -37 116 -88q44 -50 71 -131q27 -80 22 -183q-6 -133 -95 -236q-88 -102 -215 -150q-126 -48 -263 -48q-135 0 -265 67t-229 195z" />
    <glyph glyph-name="sacute" unicode="&#x15b;" horiz-adv-x="1155" 
d="M956 1888l-268 -340h-317l204 340h381zM45 242l231 217q41 -51 104 -86t124 -45q58 -10 117 -5q54 4 92 33q37 28 39 74q1 57 -72 94q-69 35 -176 51q-191 30 -319 149t-128 312q0 203 155 319q154 115 370 115q304 0 495 -231l-239 -184q-74 78 -172 105
q-100 27 -171 -4q-74 -32 -75 -114q6 -94 192 -135q81 -15 154 -35q62 -17 137 -56q71 -37 116 -88q44 -50 71 -131q27 -80 22 -183q-6 -133 -95 -236q-88 -102 -215 -150q-126 -48 -263 -48q-135 0 -265 67t-229 195z" />
    <glyph glyph-name="Scedilla" unicode="&#x15e;" horiz-adv-x="1155" 
d="M612 907q81 -15 154 -35q62 -17 137 -56q71 -37 116 -88q44 -50 71 -131q27 -80 22 -183q-7 -153 -120 -263q-112 -109 -277 -149l-29 -65q78 -21 120 -75q42 -53 37 -118q-4 -61 -36 -124q-30 -59 -99 -100q-68 -40 -155 -40q-173 0 -299 104l65 176q41 -29 95 -50
q45 -17 85 -11q38 6 48 43t-34 69q-43 31 -122 37l62 138q-239 40 -408 256l231 217q41 -51 104 -86t124 -45q58 -10 117 -5q54 4 92 33q37 28 39 74q1 57 -72 94q-69 35 -176 51q-191 30 -319 149t-128 312q0 203 155 319q154 115 370 115q304 0 495 -231l-239 -184
q-74 78 -172 105q-100 27 -171 -4q-74 -32 -75 -114q6 -94 192 -135z" />
    <glyph glyph-name="scedilla" unicode="&#x15f;" horiz-adv-x="1155" 
d="M612 907q81 -15 154 -35q62 -17 137 -56q71 -37 116 -88q44 -50 71 -131q27 -80 22 -183q-7 -153 -120 -263q-112 -109 -277 -149l-29 -65q78 -21 120 -75q42 -53 37 -118q-4 -61 -36 -124q-30 -59 -99 -100q-68 -40 -155 -40q-173 0 -299 104l65 176q41 -29 95 -50
q45 -17 85 -11q38 6 48 43t-34 69q-43 31 -122 37l62 138q-239 40 -408 256l231 217q41 -51 104 -86t124 -45q58 -10 117 -5q54 4 92 33q37 28 39 74q1 57 -72 94q-69 35 -176 51q-191 30 -319 149t-128 312q0 203 155 319q154 115 370 115q304 0 495 -231l-239 -184
q-74 78 -172 105q-100 27 -171 -4q-74 -32 -75 -114q6 -94 192 -135z" />
    <glyph glyph-name="Scaron" unicode="&#x160;" horiz-adv-x="1155" 
d="M154 1892h344l84 -106l94 106h342l-307 -344h-250zM45 242l231 217q41 -51 104 -86t124 -45q58 -10 117 -5q54 4 92 33q37 28 39 74q1 57 -72 94q-69 35 -176 51q-191 30 -319 149t-128 312q0 203 155 319q154 115 370 115q304 0 495 -231l-239 -184q-74 78 -172 105
q-100 27 -171 -4q-74 -32 -75 -114q6 -94 192 -135q81 -15 154 -35q62 -17 137 -56q71 -37 116 -88q44 -50 71 -131q27 -80 22 -183q-6 -133 -95 -236q-88 -102 -215 -150q-126 -48 -263 -48q-135 0 -265 67t-229 195z" />
    <glyph glyph-name="scaron" unicode="&#x161;" horiz-adv-x="1155" 
d="M154 1892h344l84 -106l94 106h342l-307 -344h-250zM45 242l231 217q41 -51 104 -86t124 -45q58 -10 117 -5q54 4 92 33q37 28 39 74q1 57 -72 94q-69 35 -176 51q-191 30 -319 149t-128 312q0 203 155 319q154 115 370 115q304 0 495 -231l-239 -184q-74 78 -172 105
q-100 27 -171 -4q-74 -32 -75 -114q6 -94 192 -135q81 -15 154 -35q62 -17 137 -56q71 -37 116 -88q44 -50 71 -131q27 -80 22 -183q-6 -133 -95 -236q-88 -102 -215 -150q-126 -48 -263 -48q-135 0 -265 67t-229 195z" />
    <glyph glyph-name="Tcommaaccent" unicode="&#x162;" horiz-adv-x="1198" 
d="M1169 1104h-385v-1104h-370v1104h-385v348h1140v-348zM831 -102l-153 -418h-334l125 418h362z" />
    <glyph glyph-name="tcommaaccent" unicode="&#x163;" horiz-adv-x="1198" 
d="M1169 1104h-385v-1104h-370v1104h-385v348h1140v-348zM831 -102l-153 -418h-334l125 418h362z" />
    <glyph glyph-name="Tcaron" unicode="&#x164;" horiz-adv-x="1198" 
d="M162 1892h344l84 -106l94 106h342l-307 -344h-250zM1169 1104h-385v-1104h-370v1104h-385v348h1140v-348z" />
    <glyph glyph-name="tcaron" unicode="&#x165;" horiz-adv-x="1198" 
d="M162 1892h344l84 -106l94 106h342l-307 -344h-250zM1169 1104h-385v-1104h-370v1104h-385v348h1140v-348z" />
    <glyph glyph-name="Tbar" unicode="&#x166;" horiz-adv-x="1206" 
d="M788 707h156v-275h-156v-432h-370v432h-164v275h164v397h-385v348h1141v-348h-386v-397z" />
    <glyph glyph-name="tbar" unicode="&#x167;" horiz-adv-x="1206" 
d="M788 707h156v-275h-156v-432h-370v432h-164v275h164v397h-385v348h1141v-348h-386v-397z" />
    <glyph glyph-name="Umacron" unicode="&#x16a;" horiz-adv-x="1366" 
d="M379 1552v275h608v-275h-608zM477 1450v-965q0 -65 43 -111t104 -57q60 -10 121 0q61 11 105 57q43 46 43 111v965h371v-965q0 -111 -40 -201q-40 -91 -108 -151q-66 -58 -154 -101q-88 -42 -183 -50t-191 0q-96 7 -184 50q-89 43 -153 101q-68 62 -106 151
q-39 92 -39 201v965h371z" />
    <glyph glyph-name="umacron" unicode="&#x16b;" horiz-adv-x="1366" 
d="M379 1552v275h608v-275h-608zM477 1450v-965q0 -65 43 -111t104 -57q60 -10 121 0q61 11 105 57q43 46 43 111v965h371v-965q0 -111 -40 -201q-40 -91 -108 -151q-66 -58 -154 -101q-88 -42 -183 -50t-191 0q-96 7 -184 50q-89 43 -153 101q-68 62 -106 151
q-39 92 -39 201v965h371z" />
    <glyph glyph-name="Uring" unicode="&#x16e;" horiz-adv-x="1366" 
d="M416 1743q0 102 80 173t192 71q110 0 189 -74q77 -73 77 -170q0 -102 -78 -170q-81 -70 -188 -70q-112 0 -192 69t-80 171zM762 1741q0 29 -22 53q-21 23 -52 23q-35 0 -56 -23q-22 -24 -22 -53q0 -24 22 -46t56 -22q31 0 53 19q21 18 21 49zM477 1450v-965
q0 -65 43 -111t104 -57q60 -10 121 0q61 11 105 57q43 46 43 111v965h371v-965q0 -111 -40 -201q-40 -91 -108 -151q-66 -58 -154 -101q-88 -42 -183 -50t-191 0q-96 7 -184 50q-89 43 -153 101q-68 62 -106 151q-39 92 -39 201v965h371z" />
    <glyph glyph-name="uring" unicode="&#x16f;" horiz-adv-x="1366" 
d="M416 1743q0 102 80 173t192 71q110 0 189 -74q77 -73 77 -170q0 -102 -78 -170q-81 -70 -188 -70q-112 0 -192 69t-80 171zM762 1741q0 29 -22 53q-21 23 -52 23q-35 0 -56 -23q-22 -24 -22 -53q0 -24 22 -46t56 -22q31 0 53 19q21 18 21 49zM477 1450v-965
q0 -65 43 -111t104 -57q60 -10 121 0q61 11 105 57q43 46 43 111v965h371v-965q0 -111 -40 -201q-40 -91 -108 -151q-66 -58 -154 -101q-88 -42 -183 -50t-191 0q-96 7 -184 50q-89 43 -153 101q-68 62 -106 151q-39 92 -39 201v965h371z" />
    <glyph glyph-name="Uhungarumlaut" unicode="&#x170;" horiz-adv-x="1366" 
d="M805 1872l-227 -324h-289l153 324h363zM1280 1872l-240 -324h-286l151 324h375zM477 1450v-965q0 -65 43 -111t104 -57q60 -10 121 0q61 11 105 57q43 46 43 111v965h371v-965q0 -111 -40 -201q-40 -91 -108 -151q-66 -58 -154 -101q-88 -42 -183 -50t-191 0
q-96 7 -184 50q-89 43 -153 101q-68 62 -106 151q-39 92 -39 201v965h371z" />
    <glyph glyph-name="uhungarumlaut" unicode="&#x171;" horiz-adv-x="1366" 
d="M805 1872l-227 -324h-289l153 324h363zM1280 1872l-240 -324h-286l151 324h375zM477 1450v-965q0 -65 43 -111t104 -57q60 -10 121 0q61 11 105 57q43 46 43 111v965h371v-965q0 -111 -40 -201q-40 -91 -108 -151q-66 -58 -154 -101q-88 -42 -183 -50t-191 0
q-96 7 -184 50q-89 43 -153 101q-68 62 -106 151q-39 92 -39 201v965h371z" />
    <glyph glyph-name="Uogonek" unicode="&#x172;" horiz-adv-x="1366" 
d="M1262 1450v-965q0 -148 -71 -260q-71 -111 -192 -174q-105 -77 -116 -186q-6 -78 43 -90q10 -2 16 -2q38 0 82 28l57 -219q-100 -82 -235 -82q-205 0 -256 144q-51 143 90 331q-232 0 -405 135q-171 134 -171 375v965h371v-965q0 -65 43 -111t104 -57q60 -10 121 0
q61 11 105 57q43 46 43 111v965h371z" />
    <glyph glyph-name="uogonek" unicode="&#x173;" horiz-adv-x="1366" 
d="M1262 1450v-965q0 -148 -71 -260q-71 -111 -192 -174q-105 -77 -116 -186q-6 -78 43 -90q10 -2 16 -2q38 0 82 28l57 -219q-100 -82 -235 -82q-205 0 -256 144q-51 143 90 331q-232 0 -405 135q-171 134 -171 375v965h371v-965q0 -65 43 -111t104 -57q60 -10 121 0
q61 11 105 57q43 46 43 111v965h371z" />
    <glyph glyph-name="Wcircumflex" unicode="&#x174;" horiz-adv-x="1873" 
d="M1063 1892l307 -344h-332l-94 107l-90 -107h-346l315 344h240zM1319 752l176 698h379l-418 -1450h-340l-129 401l-51 332h-6l-56 -330l-114 -403h-340l-420 1450h381l172 -694l37 -307h10l35 305l162 508h278l150 -510l47 -303h6z" />
    <glyph glyph-name="wcircumflex" unicode="&#x175;" horiz-adv-x="1873" 
d="M1063 1892l307 -344h-332l-94 107l-90 -107h-346l315 344h240zM1319 752l176 698h379l-418 -1450h-340l-129 401l-51 332h-6l-56 -330l-114 -403h-340l-420 1450h381l172 -694l37 -307h10l35 305l162 508h278l150 -510l47 -303h6z" />
    <glyph glyph-name="Ycircumflex" unicode="&#x176;" horiz-adv-x="1341" 
d="M782 1892l308 -344h-332l-94 107l-91 -107h-346l316 344h239zM854 0h-367v571l-505 879h426l262 -532l262 532h430l-508 -879v-571z" />
    <glyph glyph-name="ycircumflex" unicode="&#x177;" horiz-adv-x="1341" 
d="M782 1892l308 -344h-332l-94 107l-91 -107h-346l316 344h239zM854 0h-367v571l-505 879h426l262 -532l262 532h430l-508 -879v-571z" />
    <glyph glyph-name="Ydieresis" unicode="&#x178;" horiz-adv-x="1341" 
d="M244 1708q0 74 50 124t122 50t122 -50t50 -124q0 -71 -50 -121q-49 -49 -122 -49t-122 49q-50 50 -50 121zM737 1708q0 75 49 124q50 50 123 50q74 0 124 -50t50 -124q0 -71 -50 -121q-49 -49 -124 -49q-74 0 -123 49t-49 121zM854 0h-367v571l-505 879h426l262 -532
l262 532h430l-508 -879v-571z" />
    <glyph glyph-name="Zacute" unicode="&#x179;" horiz-adv-x="1239" 
d="M1012 1888l-269 -340h-317l205 340h381zM74 1450h1054l78 -123l-624 -993l589 4v-338h-1075l-67 135l626 975h-581v340z" />
    <glyph glyph-name="zacute" unicode="&#x17a;" horiz-adv-x="1239" 
d="M1012 1888l-269 -340h-317l205 340h381zM74 1450h1054l78 -123l-624 -993l589 4v-338h-1075l-67 135l626 975h-581v340z" />
    <glyph glyph-name="Zdotaccent" unicode="&#x17b;" horiz-adv-x="1239" 
d="M434 1743q0 84 59 141q60 58 144 58t142 -58q57 -57 57 -141q0 -87 -57 -144t-142 -57t-144 59t-59 142zM74 1450h1054l78 -123l-624 -993l589 4v-338h-1075l-67 135l626 975h-581v340z" />
    <glyph glyph-name="zdotaccent" unicode="&#x17c;" horiz-adv-x="1239" 
d="M434 1743q0 84 59 141q60 58 144 58t142 -58q57 -57 57 -141q0 -87 -57 -144t-142 -57t-144 59t-59 142zM74 1450h1054l78 -123l-624 -993l589 4v-338h-1075l-67 135l626 975h-581v340z" />
    <glyph glyph-name="Zcaron" unicode="&#x17d;" horiz-adv-x="1239" 
d="M209 1892h344l84 -106l94 106h342l-307 -344h-250zM74 1450h1054l78 -123l-624 -993l589 4v-338h-1075l-67 135l626 975h-581v340z" />
    <glyph glyph-name="zcaron" unicode="&#x17e;" horiz-adv-x="1239" 
d="M209 1892h344l84 -106l94 106h342l-307 -344h-250zM74 1450h1054l78 -123l-624 -993l589 4v-338h-1075l-67 135l626 975h-581v340z" />
    <glyph glyph-name="florin" unicode="&#x192;" horiz-adv-x="1044" 
d="M23 -170l83 252q113 -56 134 59l92 482h-146v299h201l43 196q22 143 118 240q95 97 219 104q126 8 259 -90l-115 -221q-108 45 -131 -70l-37 -159h144v-299h-197l-100 -551q-39 -208 -211 -277q-173 -69 -356 35z" />
    <glyph glyph-name="Scommaaccent" unicode="&#x218;" horiz-adv-x="1155" 
d="M45 242l231 217q41 -51 104 -86t124 -45q58 -10 117 -5q54 4 92 33q37 28 39 74q1 57 -72 94q-69 35 -176 51q-191 30 -319 149t-128 312q0 203 155 319q154 115 370 115q304 0 495 -231l-239 -184q-74 78 -172 105q-100 27 -171 -4q-74 -32 -75 -114q6 -94 192 -135
q81 -15 154 -35q62 -17 137 -56q71 -37 116 -88q44 -50 71 -131q27 -80 22 -183q-6 -133 -95 -236q-88 -102 -215 -150q-126 -48 -263 -48q-135 0 -265 67t-229 195zM778 -102l-153 -418h-334l125 418h362z" />
    <glyph glyph-name="scommaaccent" unicode="&#x219;" horiz-adv-x="1155" 
d="M45 242l231 217q41 -51 104 -86t124 -45q58 -10 117 -5q54 4 92 33q37 28 39 74q1 57 -72 94q-69 35 -176 51q-191 30 -319 149t-128 312q0 203 155 319q154 115 370 115q304 0 495 -231l-239 -184q-74 78 -172 105q-100 27 -171 -4q-74 -32 -75 -114q6 -94 192 -135
q81 -15 154 -35q62 -17 137 -56q71 -37 116 -88q44 -50 71 -131q27 -80 22 -183q-6 -133 -95 -236q-88 -102 -215 -150q-126 -48 -263 -48q-135 0 -265 67t-229 195zM778 -102l-153 -418h-334l125 418h362z" />
    <glyph glyph-name="uni021A" unicode="&#x21a;" horiz-adv-x="1198" 
d="M1169 1104h-385v-1104h-370v1104h-385v348h1140v-348zM831 -102l-153 -418h-334l125 418h362z" />
    <glyph glyph-name="uni021B" unicode="&#x21b;" horiz-adv-x="1198" 
d="M1169 1104h-385v-1104h-370v1104h-385v348h1140v-348zM831 -102l-153 -418h-334l125 418h362z" />
    <glyph glyph-name="circumflex" unicode="&#x2c6;" horiz-adv-x="1026" 
d="M637 1892l307 -344h-332l-94 107l-90 -107h-346l315 344h240z" />
    <glyph glyph-name="caron" unicode="&#x2c7;" horiz-adv-x="903" 
d="M29 1892h344l84 -106l94 106h342l-307 -344h-250z" />
    <glyph glyph-name="uni02C9" unicode="&#x2c9;" horiz-adv-x="675" 
d="M102 1552v275h609v-275h-609z" />
    <glyph glyph-name="breve" unicode="&#x2d8;" horiz-adv-x="921" 
d="M543 1888h276q0 -111 -53 -196q-52 -83 -133 -121q-78 -37 -172 -37t-172 37q-81 38 -133 121q-54 86 -54 196h281q0 -48 40 -69t80 0t40 69z" />
    <glyph glyph-name="dotaccent" unicode="&#x2d9;" horiz-adv-x="606" 
d="M102 1743q0 84 59 141q60 58 144 58t142 -58q57 -57 57 -141q0 -87 -57 -144t-142 -57t-144 59t-59 142z" />
    <glyph glyph-name="ring" unicode="&#x2da;" horiz-adv-x="735" 
d="M98 1784q0 108 80 183q79 75 193 75q110 0 188 -79q78 -80 78 -181q0 -104 -79 -179q-80 -75 -187 -75q-113 0 -193 74t-80 182zM444 1780q0 33 -21 57q-22 25 -52 25q-36 0 -57 -24t-21 -58q0 -26 21 -49t57 -23q32 0 52 19q21 19 21 53z" />
    <glyph glyph-name="ogonek" unicode="&#x2db;" horiz-adv-x="778" 
d="M565 23l10 -23q-108 -107 -98 -182q6 -47 60 -45q37 0 81 28l58 -219q-100 -82 -236 -82q-141 0 -212 74q-70 73 -49 196t138 253h248z" />
    <glyph glyph-name="tilde" unicode="&#x2dc;" horiz-adv-x="952" 
d="M281 1526l-179 100q47 248 260 242q37 0 89 -23q42 -18 85 -41q35 -18 69 -8q36 11 59 64l186 -107q-28 -113 -83 -174q-53 -59 -130 -57q-53 0 -112 22q-67 25 -98 40q-37 18 -78 7q-40 -10 -68 -65z" />
    <glyph glyph-name="hungarumlaut" unicode="&#x2dd;" horiz-adv-x="1093" 
d="M618 1872l-227 -324h-289l154 324h362zM1094 1872l-240 -324h-287l152 324h375z" />
    <glyph glyph-name="uni0326" unicode="&#x326;" horiz-adv-x="0" 
d="M821 -102l-153 -418h-334l125 418h362z" />
    <glyph glyph-name="uni03A9" unicode="&#x3a9;" horiz-adv-x="1589" 
d="M82 360h133q-123 159 -123 406q0 221 104 381t258 233q156 74 337 74q182 0 341 -75q160 -75 264 -233q105 -159 105 -372q0 -250 -129 -414h131v-360h-682v289q330 105 330 452q0 151 -93 256t-267 105q-164 0 -257 -111q-94 -112 -94 -266q0 -147 82 -268t240 -168
v-289h-680v360z" />
    <glyph glyph-name="uni03BC" unicode="&#x3bc;" horiz-adv-x="1085" 
d="M690 -2l-12 78q-53 -79 -120 -77q-65 1 -109 71v-422h-351v1409h351v-635q0 -64 46 -91t92 -2t46 91v637h352l4 -1061z" />
    <glyph glyph-name="pi" unicode="&#x3c0;" horiz-adv-x="1177" 
d="M1087 266l3 -276q-435 -44 -435 356v408h-104v-754h-344v723l-129 -29l-68 258l39 35q134 86 273 86h796l-33 -319h-81v-402q0 -44 20.5 -65.5t62.5 -20.5z" />
    <glyph glyph-name="uni0401" unicode="&#x401;" 
d="M213 1708q0 74 50 124t122 50t122 -50t50 -124q0 -71 -50 -121q-49 -49 -122 -49t-122 49q-50 50 -50 121zM707 1708q0 75 49 124q50 50 123 50t123 -50q51 -51 51 -124q0 -70 -51 -121q-49 -49 -123 -49t-123 49t-49 121zM485 1106v-225h588v-318h-588v-217h639v-346
h-1009v1450h1009v-344h-639z" />
    <glyph glyph-name="uni0410" unicode="&#x410;" horiz-adv-x="1327" 
d="M827 1450l519 -1450h-394l-94 291h-387l-90 -291h-393l506 1450h333zM553 616h217l-100 424h-11z" />
    <glyph glyph-name="uni0411" unicode="&#x411;" horiz-adv-x="1261" 
d="M1225 473q0 -217 -140 -345t-378 -128h-592v1450h991v-307h-623v-225h213q290 0 410 -109q119 -108 119 -336zM483 322h213q166 0 166 170q0 159 -168 159h-211v-329z" />
    <glyph glyph-name="uni0412" unicode="&#x412;" horiz-adv-x="1282" 
d="M1167 1008q-1 -58 -40 -129q-38 -70 -109 -107q133 -67 178 -180q45 -112 27 -217q-60 -375 -516 -375h-592v1450h581q213 0 345 -120t126 -322zM483 883h213q84 0 120 64t1 129t-121 65h-213v-258zM483 322h213q106 0 147 74q42 76 -1 149t-146 73h-213v-296z" />
    <glyph glyph-name="uni0413" unicode="&#x413;" horiz-adv-x="1046" 
d="M115 1450h903v-348h-535v-1102h-368v1450z" />
    <glyph glyph-name="uni0414" unicode="&#x414;" horiz-adv-x="1527" 
d="M412 -291h-375v621q47 0 85 9q37 9 65 34q27 24 49 46q18 18 34 67q17 53 24 76q9 30 15 92q6 63 9 96q5 51 8 107q4 75 6 108l35 485h946v-1120h176v-621h-369v291h-708v-291zM944 330v772h-246l-30 -440q-12 -200 -62 -332h338z" />
    <glyph glyph-name="uni0415" unicode="&#x415;" 
d="M485 1106v-225h588v-318h-588v-217h639v-346h-1009v1450h1009v-344h-639z" />
    <glyph glyph-name="uni0416" unicode="&#x416;" horiz-adv-x="1941" 
d="M786 0v532l-12 17l-334 -549h-456l516 737l-518 713h442l362 -543v543h369v-543l363 543h442l-518 -713l516 -737h-457l-334 549l-12 -17v-532h-369z" />
    <glyph glyph-name="uni0417" unicode="&#x417;" horiz-adv-x="1165" 
d="M901 772q207 -105 207 -338q0 -214 -154 -335q-152 -119 -428 -119q-170 0 -308 75q-140 76 -222 209l233 182q129 -145 277 -145q233 0 233 156q0 78 -50 122t-138 44h-215v251h207q82 0 128 40t46 112q0 62 -47 100q-46 37 -138 37q-124 0 -264 -102l-192 188
q180 221 483 221q241 0 370 -110q130 -111 130 -309q0 -77 -42 -160q-41 -81 -116 -119z" />
    <glyph glyph-name="uni0418" unicode="&#x418;" horiz-adv-x="1402" 
d="M920 0v580l36 272l-10 2l-137 -283l-348 -571h-346v1450h368v-657l-30 -218l8 -2l121 261l370 616h336v-1450h-368z" />
    <glyph glyph-name="uni0419" unicode="&#x419;" horiz-adv-x="1402" 
d="M692 1569q-155 0 -262 94q-108 95 -108 262h284q0 -35 25 -60q24 -24 61 -24q38 0 62 24t24 60h285q0 -167 -109 -262q-107 -94 -262 -94zM920 0v580l36 272l-10 2l-137 -283l-348 -571h-346v1450h368v-657l-30 -218l8 -2l121 261l370 616h336v-1450h-368z" />
    <glyph glyph-name="uni041A" unicode="&#x41a;" horiz-adv-x="1310" 
d="M483 913l394 537h456l-573 -713l571 -737h-461l-374 518l-13 -16v-502h-368v1450h368v-537z" />
    <glyph glyph-name="uni041B" unicode="&#x41b;" horiz-adv-x="1452" 
d="M700 1102l-24 -440q-6 -101 -28 -203q-22 -99 -69 -189q-48 -91 -118 -155t-179 -97q-110 -33 -247 -18v342q49 -1 88 6q36 7 67 30q33 24 51 45q21 24 34 66q18 59 23 77q9 35 15 92q8 82 9 96q1 34 6 105q5 70 6 106l35 485h968v-1450h-368v1102h-269z" />
    <glyph glyph-name="uni041C" unicode="&#x41c;" horiz-adv-x="1574" 
d="M115 0v1450h366l305 -709l308 709h366v-1450h-368l2 418l22 293l-12 2l-191 -498h-251l-195 498l-10 -2l24 -293v-418h-366z" />
    <glyph glyph-name="uni041D" unicode="&#x41d;" horiz-adv-x="1384" 
d="M483 547v-547h-368v1450h368v-549h418v549h369v-1450h-369v547h-418z" />
    <glyph glyph-name="uni041E" unicode="&#x41e;" horiz-adv-x="1361" 
d="M80 477v496q0 235 177 366q178 131 423 131q244 0 423 -131t179 -366v-496q0 -236 -178 -366q-179 -131 -422 -131q-244 0 -423 131t-179 366zM446 973v-496q0 -76 70 -117t166 -41q95 0 164 42t69 116v496q0 80 -70 122q-71 42 -169 42q-91 0 -161 -44q-69 -43 -69 -120
z" />
    <glyph glyph-name="uni041F" unicode="&#x41f;" horiz-adv-x="1374" 
d="M483 1102v-1102h-368v1450h1145v-1450h-369v1102h-408z" />
    <glyph glyph-name="uni0420" unicode="&#x420;" horiz-adv-x="1265" 
d="M115 0v1450h579q170 0 294 -76q123 -76 180 -189q57 -114 57 -247q0 -208 -141 -361t-388 -153h-215v-424h-366zM481 750h213v358h-213v-358z" />
    <glyph glyph-name="uni0421" unicode="&#x421;" horiz-adv-x="1191" 
d="M854 453l320 -148q-56 -110 -149 -188t-184 -107q-93 -30 -190 -30q-231 0 -401 131t-170 364v500q0 159 85 272q87 116 214 169q129 54 278 54q156 0 292 -77q139 -79 218 -256l-299 -121q-46 85 -150 109q-103 24 -188 -20q-84 -43 -84 -130v-500q0 -63 53 -104
t121 -48q69 -8 137 25t97 105z" />
    <glyph glyph-name="uni0422" unicode="&#x422;" horiz-adv-x="1198" 
d="M1169 1104h-385v-1104h-370v1104h-385v348h1140v-348z" />
    <glyph glyph-name="uni0423" unicode="&#x423;" horiz-adv-x="1230" 
d="M504 1135l98 -263h10l109 283l131 295h408l-656 -1450h-395l213 469l-477 981h415z" />
    <glyph glyph-name="uni0424" unicode="&#x424;" horiz-adv-x="1646" 
d="M649 0v119q-251 0 -423 120q-173 120 -173 361v250q0 241 173 361q172 120 423 120v119h348v-119q251 0 423 -120q173 -120 173 -361v-250q0 -241 -173 -361q-172 -120 -423 -120v-119h-348zM422 852v-254q0 -147 227 -147v548q-227 0 -227 -147zM1225 598v254
q0 147 -228 147v-548q228 0 228 147z" />
    <glyph glyph-name="uni0425" unicode="&#x425;" horiz-adv-x="1343" 
d="M670 954l254 496h426l-406 -727l406 -723h-426l-254 494l-248 -494h-428l407 723l-407 727h428z" />
    <glyph glyph-name="uni0426" unicode="&#x426;" horiz-adv-x="1464" 
d="M115 0v1450h368v-1102h396v1102h368v-1102h176v-639h-348v291h-960z" />
    <glyph glyph-name="uni0427" unicode="&#x427;" horiz-adv-x="1308" 
d="M825 0v485q-40 -34 -110 -57q-75 -25 -154 -25q-203 0 -350 132q-145 130 -145 366v549h368v-549q0 -144 158 -149q154 0 231 69l2 629h369v-1450h-369z" />
    <glyph glyph-name="uni0428" unicode="&#x428;" horiz-adv-x="2023" 
d="M115 1450h368v-1102h344v1102h369v-1102h344v1102h369v-1450h-1794v1450z" />
    <glyph glyph-name="uni0429" unicode="&#x429;" horiz-adv-x="2125" 
d="M1540 1450h369v-1102h176v-639h-348v291h-1622v1450h368v-1102h344v1102h369v-1102h344v1102z" />
    <glyph glyph-name="uni042A" unicode="&#x42a;" horiz-adv-x="1462" 
d="M311 1102h-276v348h645v-494h217q280 0 401 -118t121 -340q0 -220 -138 -359t-374 -139h-596v1102zM680 322h217q162 0 162 180q0 80 -43 122q-44 42 -119 42h-217v-344z" />
    <glyph glyph-name="uni042B" unicode="&#x42b;" horiz-adv-x="1873" 
d="M1223 498q0 -218 -139 -359q-138 -139 -373 -139h-596v1450h368v-494h217q281 0 402 -118t121 -340zM1759 1450v-1450h-366v1450h366zM483 322h217q162 0 162 180q0 80 -43 122t-119 42h-217v-344z" />
    <glyph glyph-name="uni042C" unicode="&#x42c;" horiz-adv-x="1265" 
d="M1223 498q0 -218 -139 -359q-138 -139 -373 -139h-596v1450h368v-494h217q281 0 402 -118t121 -340zM483 322h217q162 0 162 180q0 80 -43 122t-119 42h-217v-344z" />
    <glyph glyph-name="uni042D" unicode="&#x42d;" 
d="M756 477v103h-322v305h322v86q0 70 -61 114q-59 43 -144 43q-155 0 -217 -116l-299 121q79 178 218 258q137 79 292 79q150 0 279 -55t215 -171q85 -115 85 -273v-494q0 -233 -171 -365t-402 -132q-98 0 -190 31t-184 108t-148 188l319 148q51 -127 213 -127q80 2 137 42
q58 41 58 107z" />
    <glyph glyph-name="uni042E" unicode="&#x42e;" horiz-adv-x="1996" 
d="M711 899v74q0 236 178 366q179 131 424 131q155 0 290 -53q134 -53 224 -170t90 -274v-496q0 -235 -179 -366t-423 -131q-155 0 -290 53q-134 53 -224 170t-90 274v86h-230v-563h-368v1450h368v-551h230zM1079 958v-473q0 -72 70 -115q69 -42 164 -42q96 0 166 41
q69 41 69 116v473q0 78 -69 121q-68 43 -166 43q-95 -2 -164 -45q-70 -44 -70 -119z" />
    <glyph glyph-name="uni042F" unicode="&#x42f;" horiz-adv-x="1323" 
d="M1208 0h-368v487h-60l-389 -487h-457l443 524q-138 49 -217 152q-78 102 -78 297q6 227 150 352q145 125 399 125h577v-1450zM840 1102h-215q-83 0 -129 -41q-45 -41 -45 -117q0 -74 44 -121t130 -47h215v326z" />
    <glyph glyph-name="uni0430" unicode="&#x430;" horiz-adv-x="1327" 
d="M827 1450l519 -1450h-394l-94 291h-387l-90 -291h-393l506 1450h333zM553 616h217l-100 424h-11z" />
    <glyph glyph-name="uni0431" unicode="&#x431;" horiz-adv-x="1261" 
d="M1225 473q0 -217 -140 -345t-378 -128h-592v1450h991v-307h-623v-225h213q290 0 410 -109q119 -108 119 -336zM483 322h213q166 0 166 170q0 159 -168 159h-211v-329z" />
    <glyph glyph-name="uni0432" unicode="&#x432;" horiz-adv-x="1282" 
d="M1167 1008q-1 -58 -40 -129q-38 -70 -109 -107q133 -67 178 -180q45 -112 27 -217q-60 -375 -516 -375h-592v1450h581q213 0 345 -120t126 -322zM483 883h213q84 0 120 64t1 129t-121 65h-213v-258zM483 322h213q106 0 147 74q42 76 -1 149t-146 73h-213v-296z" />
    <glyph glyph-name="uni0433" unicode="&#x433;" horiz-adv-x="1046" 
d="M115 1450h903v-348h-535v-1102h-368v1450z" />
    <glyph glyph-name="uni0434" unicode="&#x434;" horiz-adv-x="1476" 
d="M403 -291h-372v621h131l379 1120h387l391 -1120h127v-621h-373v291h-670v-291zM813 721l-72 319h-8l-63 -323l-109 -387h352z" />
    <glyph glyph-name="uni0435" unicode="&#x435;" 
d="M485 1106v-225h588v-318h-588v-217h639v-346h-1009v1450h1009v-344h-639z" />
    <glyph glyph-name="uni0436" unicode="&#x436;" horiz-adv-x="1941" 
d="M786 0v532l-12 17l-334 -549h-456l516 737l-518 713h442l362 -543v543h369v-543l363 543h442l-518 -713l516 -737h-457l-334 549l-12 -17v-532h-369z" />
    <glyph glyph-name="uni0437" unicode="&#x437;" horiz-adv-x="1165" 
d="M901 772q207 -105 207 -338q0 -214 -154 -335q-152 -119 -428 -119q-170 0 -308 75q-140 76 -222 209l233 182q129 -145 277 -145q233 0 233 156q0 78 -50 122t-138 44h-215v251h207q82 0 128 40t46 112q0 62 -47 100q-46 37 -138 37q-124 0 -264 -102l-192 188
q180 221 483 221q241 0 370 -110q130 -111 130 -309q0 -77 -42 -160q-41 -81 -116 -119z" />
    <glyph glyph-name="uni0438" unicode="&#x438;" horiz-adv-x="1402" 
d="M920 0v580l36 272l-10 2l-137 -283l-348 -571h-346v1450h368v-657l-30 -218l8 -2l121 261l370 616h336v-1450h-368z" />
    <glyph glyph-name="uni0439" unicode="&#x439;" horiz-adv-x="1402" 
d="M692 1569q-155 0 -262 94q-108 95 -108 262h284q0 -35 25 -60q24 -24 61 -24q38 0 62 24t24 60h285q0 -167 -109 -262q-107 -94 -262 -94zM920 0v580l36 272l-10 2l-137 -283l-348 -571h-346v1450h368v-657l-30 -218l8 -2l121 261l370 616h336v-1450h-368z" />
    <glyph glyph-name="uni043A" unicode="&#x43a;" horiz-adv-x="1310" 
d="M483 913l394 537h456l-573 -713l571 -737h-461l-374 518l-13 -16v-502h-368v1450h368v-537z" />
    <glyph glyph-name="uni043B" unicode="&#x43b;" horiz-adv-x="1298" 
d="M655 1040h-12l-88 -424l-172 -616h-393l487 1450h338l500 -1450h-393l-183 616z" />
    <glyph glyph-name="uni043C" unicode="&#x43c;" horiz-adv-x="1574" 
d="M115 0v1450h366l305 -709l308 709h366v-1450h-368l2 418l22 293l-12 2l-191 -498h-251l-195 498l-10 -2l24 -293v-418h-366z" />
    <glyph glyph-name="uni043D" unicode="&#x43d;" horiz-adv-x="1384" 
d="M483 547v-547h-368v1450h368v-549h418v549h369v-1450h-369v547h-418z" />
    <glyph glyph-name="uni043E" unicode="&#x43e;" horiz-adv-x="1361" 
d="M80 477v496q0 235 177 366q178 131 423 131q244 0 423 -131t179 -366v-496q0 -236 -178 -366q-179 -131 -422 -131q-244 0 -423 131t-179 366zM446 973v-496q0 -76 70 -117t166 -41q95 0 164 42t69 116v496q0 80 -70 122q-71 42 -169 42q-91 0 -161 -44q-69 -43 -69 -120
z" />
    <glyph glyph-name="uni043F" unicode="&#x43f;" horiz-adv-x="1374" 
d="M483 1102v-1102h-368v1450h1145v-1450h-369v1102h-408z" />
    <glyph glyph-name="uni0440" unicode="&#x440;" horiz-adv-x="1265" 
d="M115 0v1450h579q170 0 294 -76q123 -76 180 -189q57 -114 57 -247q0 -208 -141 -361t-388 -153h-215v-424h-366zM481 750h213v358h-213v-358z" />
    <glyph glyph-name="uni0441" unicode="&#x441;" horiz-adv-x="1191" 
d="M854 453l320 -148q-56 -110 -149 -188t-184 -107q-93 -30 -190 -30q-231 0 -401 131t-170 364v500q0 159 85 272q87 116 214 169q129 54 278 54q156 0 292 -77q139 -79 218 -256l-299 -121q-46 85 -150 109q-103 24 -188 -20q-84 -43 -84 -130v-500q0 -63 53 -104
t121 -48q69 -8 137 25t97 105z" />
    <glyph glyph-name="uni0442" unicode="&#x442;" horiz-adv-x="1198" 
d="M1169 1104h-385v-1104h-370v1104h-385v348h1140v-348z" />
    <glyph glyph-name="uni0443" unicode="&#x443;" horiz-adv-x="1230" 
d="M504 1135l98 -263h10l109 283l131 295h408l-656 -1450h-395l213 469l-477 981h415z" />
    <glyph glyph-name="uni0444" unicode="&#x444;" horiz-adv-x="1646" 
d="M649 0v119q-251 0 -423 120q-173 120 -173 361v250q0 241 173 361q172 120 423 120v119h348v-119q251 0 423 -120q173 -120 173 -361v-250q0 -241 -173 -361q-172 -120 -423 -120v-119h-348zM422 852v-254q0 -147 227 -147v548q-227 0 -227 -147zM1225 598v254
q0 147 -228 147v-548q228 0 228 147z" />
    <glyph glyph-name="uni0445" unicode="&#x445;" horiz-adv-x="1343" 
d="M670 954l254 496h426l-406 -727l406 -723h-426l-254 494l-248 -494h-428l407 723l-407 727h428z" />
    <glyph glyph-name="uni0446" unicode="&#x446;" horiz-adv-x="1464" 
d="M115 0v1450h368v-1102h396v1102h368v-1102h176v-639h-348v291h-960z" />
    <glyph glyph-name="uni0447" unicode="&#x447;" horiz-adv-x="1308" 
d="M825 0v485q-40 -34 -110 -57q-75 -25 -154 -25q-203 0 -350 132q-145 130 -145 366v549h368v-549q0 -144 158 -149q154 0 231 69l2 629h369v-1450h-369z" />
    <glyph glyph-name="uni0448" unicode="&#x448;" horiz-adv-x="2023" 
d="M115 1450h368v-1102h344v1102h369v-1102h344v1102h369v-1450h-1794v1450z" />
    <glyph glyph-name="uni0449" unicode="&#x449;" horiz-adv-x="2125" 
d="M1540 1450h369v-1102h176v-639h-348v291h-1622v1450h368v-1102h344v1102h369v-1102h344v1102z" />
    <glyph glyph-name="uni044A" unicode="&#x44a;" horiz-adv-x="1462" 
d="M311 1102h-276v348h645v-494h217q280 0 401 -118t121 -340q0 -220 -138 -359t-374 -139h-596v1102zM680 322h217q162 0 162 180q0 80 -43 122q-44 42 -119 42h-217v-344z" />
    <glyph glyph-name="uni044B" unicode="&#x44b;" horiz-adv-x="1873" 
d="M1223 498q0 -218 -139 -359q-138 -139 -373 -139h-596v1450h368v-494h217q281 0 402 -118t121 -340zM1759 1450v-1450h-366v1450h366zM483 322h217q162 0 162 180q0 80 -43 122t-119 42h-217v-344z" />
    <glyph glyph-name="uni044C" unicode="&#x44c;" horiz-adv-x="1265" 
d="M1223 498q0 -218 -139 -359q-138 -139 -373 -139h-596v1450h368v-494h217q281 0 402 -118t121 -340zM483 322h217q162 0 162 180q0 80 -43 122t-119 42h-217v-344z" />
    <glyph glyph-name="uni044D" unicode="&#x44d;" 
d="M756 477v103h-322v305h322v86q0 70 -61 114q-59 43 -144 43q-155 0 -217 -116l-299 121q79 178 218 258q137 79 292 79q150 0 279 -55t215 -171q85 -115 85 -273v-494q0 -233 -171 -365t-402 -132q-98 0 -190 31t-184 108t-148 188l319 148q51 -127 213 -127q80 2 137 42
q58 41 58 107z" />
    <glyph glyph-name="uni044E" unicode="&#x44e;" horiz-adv-x="1996" 
d="M711 899v74q0 236 178 366q179 131 424 131q155 0 290 -53q134 -53 224 -170t90 -274v-496q0 -235 -179 -366t-423 -131q-155 0 -290 53q-134 53 -224 170t-90 274v86h-230v-563h-368v1450h368v-551h230zM1079 958v-473q0 -72 70 -115q69 -42 164 -42q96 0 166 41
q69 41 69 116v473q0 78 -69 121q-68 43 -166 43q-95 -2 -164 -45q-70 -44 -70 -119z" />
    <glyph glyph-name="uni044F" unicode="&#x44f;" horiz-adv-x="1323" 
d="M1208 0h-368v487h-60l-389 -487h-457l443 524q-138 49 -217 152q-78 102 -78 297q6 227 150 352q145 125 399 125h577v-1450zM840 1102h-215q-83 0 -129 -41q-45 -41 -45 -117q0 -74 44 -121t130 -47h215v326z" />
    <glyph glyph-name="uni0451" unicode="&#x451;" 
d="M213 1708q0 74 50 124t122 50t122 -50t50 -124q0 -71 -50 -121q-49 -49 -122 -49t-122 49q-50 50 -50 121zM707 1708q0 75 49 124q50 50 123 50t123 -50q51 -51 51 -124q0 -70 -51 -121q-49 -49 -123 -49t-123 49t-49 121zM485 1106v-225h588v-318h-588v-217h639v-346
h-1009v1450h1009v-344h-639z" />
    <glyph glyph-name="Wgrave" unicode="&#x1e80;" horiz-adv-x="1873" 
d="M1153 1548h-317l-269 340h381zM1319 752l176 698h379l-418 -1450h-340l-129 401l-51 332h-6l-56 -330l-114 -403h-340l-420 1450h381l172 -694l37 -307h10l35 305l162 508h278l150 -510l47 -303h6z" />
    <glyph glyph-name="wgrave" unicode="&#x1e81;" horiz-adv-x="1873" 
d="M1153 1548h-317l-269 340h381zM1319 752l176 698h379l-418 -1450h-340l-129 401l-51 332h-6l-56 -330l-114 -403h-340l-420 1450h381l172 -694l37 -307h10l35 305l162 508h278l150 -510l47 -303h6z" />
    <glyph glyph-name="Wacute" unicode="&#x1e82;" horiz-adv-x="1873" 
d="M1319 1888l-268 -340h-318l205 340h381zM1319 752l176 698h379l-418 -1450h-340l-129 401l-51 332h-6l-56 -330l-114 -403h-340l-420 1450h381l172 -694l37 -307h10l35 305l162 508h278l150 -510l47 -303h6z" />
    <glyph glyph-name="wacute" unicode="&#x1e83;" horiz-adv-x="1873" 
d="M1319 1888l-268 -340h-318l205 340h381zM1319 752l176 698h379l-418 -1450h-340l-129 401l-51 332h-6l-56 -330l-114 -403h-340l-420 1450h381l172 -694l37 -307h10l35 305l162 508h278l150 -510l47 -303h6z" />
    <glyph glyph-name="Wdieresis" unicode="&#x1e84;" horiz-adv-x="1873" 
d="M524 1708q0 74 50 124t122 50t122 -50t50 -124q0 -71 -50 -121q-49 -49 -122 -49t-122 49q-50 50 -50 121zM1018 1708q0 75 49 124q50 50 123 50q74 0 124 -50t50 -124q0 -71 -50 -121q-49 -49 -124 -49q-74 0 -123 49t-49 121zM1319 752l176 698h379l-418 -1450h-340
l-129 401l-51 332h-6l-56 -330l-114 -403h-340l-420 1450h381l172 -694l37 -307h10l35 305l162 508h278l150 -510l47 -303h6z" />
    <glyph glyph-name="wdieresis" unicode="&#x1e85;" horiz-adv-x="1873" 
d="M524 1708q0 74 50 124t122 50t122 -50t50 -124q0 -71 -50 -121q-49 -49 -122 -49t-122 49q-50 50 -50 121zM1018 1708q0 75 49 124q50 50 123 50q74 0 124 -50t50 -124q0 -71 -50 -121q-49 -49 -124 -49q-74 0 -123 49t-49 121zM1319 752l176 698h379l-418 -1450h-340
l-129 401l-51 332h-6l-56 -330l-114 -403h-340l-420 1450h381l172 -694l37 -307h10l35 305l162 508h278l150 -510l47 -303h6z" />
    <glyph glyph-name="Ygrave" unicode="&#x1ef2;" horiz-adv-x="1341" 
d="M872 1548h-317l-268 340h381zM854 0h-367v571l-505 879h426l262 -532l262 532h430l-508 -879v-571z" />
    <glyph glyph-name="ygrave" unicode="&#x1ef3;" horiz-adv-x="1341" 
d="M872 1548h-317l-268 340h381zM854 0h-367v571l-505 879h426l262 -532l262 532h430l-508 -879v-571z" />
    <glyph glyph-name="endash" unicode="&#x2013;" horiz-adv-x="1169" 
d="M1075 766v-346h-981v346h981z" />
    <glyph glyph-name="emdash" unicode="&#x2014;" horiz-adv-x="1777" 
d="M1683 766v-346h-1589v346h1589z" />
    <glyph glyph-name="quoteleft" unicode="&#x2018;" horiz-adv-x="634" 
d="M47 1008l232 444h321l-139 -444h-414z" />
    <glyph glyph-name="quoteright" unicode="&#x2019;" horiz-adv-x="612" 
d="M592 1446l-211 -422h-322l119 422h414z" />
    <glyph glyph-name="quotesinglbase" unicode="&#x201a;" horiz-adv-x="604" 
d="M532 236l-239 -449h-311l151 449h399z" />
    <glyph glyph-name="quotedblleft" unicode="&#x201c;" horiz-adv-x="1114" 
d="M47 1008l232 444h321l-139 -444h-414zM526 1008l232 444h321l-139 -444h-414z" />
    <glyph glyph-name="quotedblright" unicode="&#x201d;" horiz-adv-x="1085" 
d="M592 1446l-211 -422h-322l119 422h414zM1065 1446l-211 -422h-322l119 422h414z" />
    <glyph glyph-name="quotedblbase" unicode="&#x201e;" horiz-adv-x="1060" 
d="M530 213l-239 -426h-311l151 426h399zM989 213l-239 -426h-312l150 426h401z" />
    <glyph glyph-name="dagger" unicode="&#x2020;" horiz-adv-x="1046" 
d="M51 713v348h297v389h350v-389h297v-348h-297v-910h-350v910h-297z" />
    <glyph glyph-name="daggerdbl" unicode="&#x2021;" horiz-adv-x="1120" 
d="M88 141v340h297v289h-297v338h297v342h350v-342h297v-338h-297v-289h297v-340h-297v-338h-350v338h-297z" />
    <glyph glyph-name="bullet" unicode="&#x2022;" horiz-adv-x="860" 
d="M98 678q0 136 98 234t236 98t234 -98t96 -234q0 -140 -96 -237t-234 -97q-139 0 -236 97q-98 98 -98 237z" />
    <glyph glyph-name="ellipsis" unicode="&#x2026;" horiz-adv-x="1609" 
d="M59 195q0 83 60 143q59 59 147 59q85 0 144 -59t59 -143q0 -88 -59 -147q-60 -60 -144 -60q-87 0 -147 60t-60 147zM602 195q0 84 58 143t143 59q88 0 147 -59q60 -60 60 -143q0 -87 -60 -147t-147 -60q-85 0 -143 60q-58 59 -58 147zM1141 195q0 84 58 143t144 59
q89 0 147 -58t58 -144q0 -88 -58 -147q-58 -60 -147 -60q-85 0 -144 60q-58 59 -58 147z" />
    <glyph glyph-name="perthousand" unicode="&#x2030;" horiz-adv-x="2195" 
d="M113 14l1007 1557l264 -176l-1007 -1551zM666 1108q0 -165 -87 -264t-223 -99q-144 0 -224 95q-79 94 -79 272q0 162 85 260t218 98q151 0 230 -94q80 -95 80 -268zM422 1108q0 123 -68 123q-71 0 -71 -121t71 -121q68 0 68 119zM1464 350q0 -165 -87 -264
q-86 -98 -222 -98q-145 0 -224 94t-79 272q0 162 85 260q85 99 218 99q149 0 229 -95t80 -268zM2148 350q0 -165 -87 -264q-86 -98 -222 -98q-145 0 -224 94t-79 272q0 162 85 260q85 99 218 99q150 0 229 -94q80 -95 80 -269zM1221 350q0 123 -68 123q-72 0 -72 -121
t72 -121q68 0 68 119zM1905 350q0 123 -68 123q-72 0 -72 -121t72 -121q68 0 68 119z" />
    <glyph glyph-name="guilsinglleft" unicode="&#x2039;" horiz-adv-x="720" 
d="M367 1075l295 -178l-211 -307q7 -10 24.5 -37t39 -59t43.5 -65q73 -108 104 -157l-297 -174l-326 490z" />
    <glyph glyph-name="guilsinglright" unicode="&#x203a;" horiz-adv-x="720" 
d="M360 100l-303 172l211 316l-209 309l297 176l326 -485z" />
    <glyph glyph-name="fraction" unicode="&#x2044;" horiz-adv-x="1193" 
d="M1206 1403l-930 -1561l-288 178l930 1559z" />
    <glyph glyph-name="Euro" unicode="&#x20ac;" horiz-adv-x="1320" 
d="M178 963v8q0 233 169 366t403 133q154 0 291 -79q140 -81 219 -258l-299 -121q-46 85 -151 109q-102 24 -187 -20q-84 -43 -84 -130v-8h364l-47 -222h-317v-63h364l-47 -221h-315q12 -77 96 -114q84 -38 178 -8q93 30 131 120l320 -148q-56 -110 -149 -188
q-92 -77 -184 -108t-190 -31q-226 0 -391 125q-166 126 -174 352h-127l45 221h82v63h-127l45 222h82z" />
    <glyph glyph-name="uni2113" unicode="&#x2113;" horiz-adv-x="921" 
d="M696 354l178 -204q-96 -115 -232 -151q-137 -36 -257 25q-119 60 -156 203l-75 -57l-121 279l166 141v379q0 268 98 381q99 114 244 114q149 0 228 -103t79 -269q0 -304 -309 -639v-15q0 -98 48 -121t109 37zM481 821v-10q84 175 84 272q0 111 -36 106q-35 -4 -56 -106
q-21 -113 8 -262z" />
    <glyph glyph-name="trademark" unicode="&#x2122;" horiz-adv-x="1767" 
d="M240 592v528h-181v332h703v-332h-184v-528h-338zM821 596v856h281l141 -270l146 270h272v-856h-305l6 244l-86 -150h-51l-92 152l4 -246h-316z" />
    <glyph glyph-name="Omega" unicode="&#x2126;" horiz-adv-x="1585" 
d="M848 0l-2 293q139 55 218 181q79 125 79 267q0 152 -91 256q-92 105 -264 105q-163 0 -252 -110q-90 -111 -90 -267q0 -137 76 -258q77 -122 211 -174v-293h-653v360h162q-152 158 -152 406q0 221 104 381t258 233q156 74 336 74q182 0 341 -75q161 -76 265 -233
q105 -159 105 -372q0 -118 -42 -232q-42 -115 -114 -182h158v-360h-653z" />
    <glyph glyph-name="estimated" unicode="&#x212e;" horiz-adv-x="1634" 
d="M555 532v-63q0 -28 1 -46t1 -48q115 -103 266 -103q112 0 223 45q112 45 181 146l342 -2q-142 -244 -343 -360q-200 -115 -405 -115q-313 0 -535 201q-223 202 -223 491q0 285 224 491q223 205 534 205q316 0 539 -205t223 -491v-146h-1028zM1092 821v156
q-123 104 -269 104q-151 0 -268 -104v-156h537z" />
    <glyph glyph-name="partialdiff" unicode="&#x2202;" horiz-adv-x="1036" 
d="M272 1055l-155 233q196 127 350 127q207 0 355 -171q149 -172 149 -509q0 -334 -136 -540q-137 -207 -380 -207q-192 0 -296 134q-103 133 -108 329q-6 225 130 370q137 146 311 146q63 0 133 -25q-5 94 -63 138q-59 44 -137 35q-79 -9 -153 -60zM457 313h16q29 -2 59 31
q34 37 56 86q34 78 39 197q-129 96 -203 -19q-55 -88 -39 -200q12 -95 72 -95z" />
    <glyph glyph-name="Delta" unicode="&#x2206;" horiz-adv-x="1198" 
d="M457 1382h284l408 -1161v-221h-1100v219zM594 905l-150 -559h297z" />
    <glyph glyph-name="product" unicode="&#x220f;" horiz-adv-x="1294" 
d="M1079 -109h-346v1217h-174v-1217h-348v1217h-156v344h1186v-344h-162v-1217z" />
    <glyph glyph-name="summation" unicode="&#x2211;" horiz-adv-x="1120" 
d="M55 106l387 533q-49 72 -181 279q-129 202 -185 284v244h958v-301h-495q40 -61 154 -244q96 -155 169 -262l-340 -457h537v-315h-1004v239z" />
    <glyph glyph-name="minus" unicode="&#x2212;" horiz-adv-x="1239" 
d="M1143 776v-344h-1047v344h1047z" />
    <glyph glyph-name="uni2215" unicode="&#x2215;" horiz-adv-x="1153" 
d="M1178 1438l-912 -1538l-289 178l912 1536z" />
    <glyph glyph-name="uni2219" unicode="&#x2219;" horiz-adv-x="540" 
d="M68 621q0 87 57 147q56 59 147 59q87 0 144 -60t57 -146q0 -87 -57 -144t-144 -57q-90 0 -147 57t-57 144z" />
    <glyph glyph-name="radical" unicode="&#x221a;" horiz-adv-x="1107" 
d="M440 -238l-221 697l-115 -31l-108 297l444 170l115 -580l193 1239h356l-377 -1792h-287z" />
    <glyph glyph-name="infinity" unicode="&#x221e;" horiz-adv-x="1374" 
d="M1317 584v-2q0 -160 -109 -263q-108 -102 -252 -102q-169 0 -268 125q-113 -125 -276 -125q-148 0 -250 104q-103 105 -103 254q0 159 103 265q101 104 260 104t272 -137q121 143 275 137q157 -6 252 -104q96 -99 96 -256zM420 664q-62 0 -86 -41t0 -83t84 -42
q47 0 127 84q-82 82 -125 82zM961 664q-43 0 -125 -82q80 -84 127 -84q60 0 84 42t0 83t-86 41z" />
    <glyph glyph-name="integral" unicode="&#x222b;" horiz-adv-x="784" 
d="M780 1520l-69 -201q-49 33 -90 9q-42 -25 -43 -101l10 -1118q0 -171 -94 -264t-234 -93q-121 0 -260 88l88 217q51 -37 95 -22t44 74q0 129 -18 1126q0 173 93 271t230 98q134 0 248 -84z" />
    <glyph glyph-name="approxequal" unicode="&#x2248;" horiz-adv-x="1017" 
d="M764 1016l184 -152q-121 -223 -299 -223q-90 0 -213 55q-124 62 -207 -32l-168 153q66 106 142 166q77 60 151 66q44 6 108 -20q55 -22 108 -53q49 -28 100 -24q54 5 94 64zM756 610l198 -147q-128 -232 -307 -232q-101 0 -209 66q-56 35 -80 35t-102 -80l-186 160
q118 189 215 224q95 34 256 -40v2q22 -6 39 -13q7 -3 13.5 -5.5t11 -4.5t6.5 -3q7 -3 24 -6q15 -3 23 -1q3 1 11 3.5t13 3.5q11 3 33 15q33 18 41 23z" />
    <glyph glyph-name="notequal" unicode="&#x2260;" horiz-adv-x="1081" 
d="M78 233v291h284l46 86h-330v291h483l103 197l247 -113l-45 -84h135v-291h-288l-45 -86h333v-291h-487l-100 -192l-248 104l45 88h-133z" />
    <glyph glyph-name="lessequal" unicode="&#x2264;" horiz-adv-x="1001" 
d="M885 977l-297 -158q2 0 297 -147v-303h33v-342h-844v342h665l-657 344v215l803 424v-375z" />
    <glyph glyph-name="greaterequal" unicode="&#x2265;" horiz-adv-x="1001" 
d="M920 920v-213l-633 -332h641v-338h-844v338h33v291l235 118l60 29l-295 154v379z" />
    <glyph glyph-name="lozenge" unicode="&#x25ca;" horiz-adv-x="1138" 
d="M442 -49l-401 727l412 731h239l406 -727l-410 -731h-246zM395 678l178 -320l170 314l-176 327z" />
    <glyph glyph-name="i.loclTRK" horiz-adv-x="595" 
d="M481 1450v-1450h-366v1450h366z" />
    <glyph glyph-name="uni0414.loclBGR" horiz-adv-x="1476" 
d="M403 -291h-372v621h131l379 1120h387l391 -1120h127v-621h-373v291h-670v-291zM813 721l-72 319h-8l-63 -323l-109 -387h352z" />
    <glyph glyph-name="uni041B.loclBGR" horiz-adv-x="1298" 
d="M655 1040h-12l-88 -424l-172 -616h-393l487 1450h338l500 -1450h-393l-183 616z" />
    <glyph glyph-name="uni0432.loclBGR" horiz-adv-x="1282" 
d="M1167 1008q-1 -58 -40 -129q-38 -70 -109 -107q133 -67 178 -180q45 -112 27 -217q-60 -375 -516 -375h-592v1450h581q213 0 345 -120t126 -322zM483 883h213q84 0 120 64t1 129t-121 65h-213v-258zM483 322h213q106 0 147 74q42 76 -1 149t-146 73h-213v-296z" />
    <glyph glyph-name="uni0433.loclBGR" horiz-adv-x="1046" 
d="M115 1450h903v-348h-535v-1102h-368v1450z" />
    <glyph glyph-name="uni0434.loclBGR" horiz-adv-x="1476" 
d="M403 -291h-372v621h131l379 1120h387l391 -1120h127v-621h-373v291h-670v-291zM813 721l-72 319h-8l-63 -323l-109 -387h352z" />
    <glyph glyph-name="uni0436.loclBGR" horiz-adv-x="1941" 
d="M786 0v532l-12 17l-334 -549h-456l516 737l-518 713h442l362 -543v543h369v-543l363 543h442l-518 -713l516 -737h-457l-334 549l-12 -17v-532h-369z" />
    <glyph glyph-name="uni0438.loclBGR" horiz-adv-x="1402" 
d="M920 0v580l36 272l-10 2l-137 -283l-348 -571h-346v1450h368v-657l-30 -218l8 -2l121 261l370 616h336v-1450h-368z" />
    <glyph glyph-name="uni0439.loclBGR" horiz-adv-x="1402" 
d="M692 1569q-155 0 -262 94q-108 95 -108 262h284q0 -35 25 -60q24 -24 61 -24q38 0 62 24t24 60h285q0 -167 -109 -262q-107 -94 -262 -94zM920 0v580l36 272l-10 2l-137 -283l-348 -571h-346v1450h368v-657l-30 -218l8 -2l121 261l370 616h336v-1450h-368z" />
    <glyph glyph-name="uni043A.loclBGR" horiz-adv-x="1310" 
d="M483 913l394 537h456l-573 -713l571 -737h-461l-374 518l-13 -16v-502h-368v1450h368v-537z" />
    <glyph glyph-name="uni043B.loclBGR" horiz-adv-x="1298" 
d="M655 1040h-12l-88 -424l-172 -616h-393l487 1450h338l500 -1450h-393l-183 616z" />
    <glyph glyph-name="uni043F.loclBGR" horiz-adv-x="1374" 
d="M483 1102v-1102h-368v1450h1145v-1450h-369v1102h-408z" />
    <glyph glyph-name="uni0442.loclBGR" horiz-adv-x="1198" 
d="M1169 1104h-385v-1104h-370v1104h-385v348h1140v-348z" />
    <glyph glyph-name="uni0446.loclBGR" horiz-adv-x="1464" 
d="M115 0v1450h368v-1102h396v1102h368v-1102h176v-639h-348v291h-960z" />
    <glyph glyph-name="uni0448.loclBGR" horiz-adv-x="2023" 
d="M115 1450h368v-1102h344v1102h369v-1102h344v1102h369v-1450h-1794v1450z" />
    <glyph glyph-name="uni0449.loclBGR" horiz-adv-x="2125" 
d="M1540 1450h369v-1102h176v-639h-348v291h-1622v1450h368v-1102h344v1102h369v-1102h344v1102z" />
    <glyph glyph-name="uni044E.loclBGR" horiz-adv-x="1996" 
d="M711 899v74q0 236 178 366q179 131 424 131q155 0 290 -53q134 -53 224 -170t90 -274v-496q0 -235 -179 -366t-423 -131q-155 0 -290 53q-134 53 -224 170t-90 274v86h-230v-563h-368v1450h368v-551h230zM1079 958v-473q0 -72 70 -115q69 -42 164 -42q96 0 166 41
q69 41 69 116v473q0 78 -69 121q-68 43 -166 43q-95 -2 -164 -45q-70 -44 -70 -119z" />
    <glyph glyph-name="at.001" horiz-adv-x="1536" 
d="M961 1102l147 -37q-49 68 -149 106q-98 37 -195 37q-158 0 -277 -86t-176 -212t-57 -265q0 -247 172 -374q173 -128 428 -50l55 -196q-138 -43 -256 -43q-281 0 -471 200q-191 202 -176 516q15 188 105 358q89 168 259 281t375 113q111 0 216 -27q133 -39 247 -126
q116 -88 170 -191q93 -182 53 -404q-41 -226 -190 -354q-50 -45 -124 -75q-73 -29 -148 -29q-89 0 -150 43q-63 -39 -145 -39q-159 0 -261 112t-102 283q0 197 117 347q118 151 281 151q115 0 215 -82zM1143 1014l-96 -525q75 34 116 127q41 92 39 193q-1 100 -41 168z
M705 500q60 0 92 32l65 302q-108 114 -203 34q-75 -60 -81 -184q-5 -92 45 -152q29 -32 82 -32z" />
    </font>
</defs>
</svg>
